<?xml version="1.0" encoding="utf-8"?>
<!-- Generator: Adobe Illustrator 28.4.1, SVG Export Plug-In . SVG Version: 6.00 Build 0)  -->
<svg version="1.1" xmlns="http://www.w3.org/2000/svg" xmlns:xlink="http://www.w3.org/1999/xlink" x="0px" y="0px"
	 viewBox="0 0 2048 2048" style="enable-background:new 0 0 2048 2048;" xml:space="preserve">
<style type="text/css">
	.st0{clip-path:url(#SVGID_00000100375924780538613590000017290757827668548260_);fill:#FCCA78;}
	.st1{clip-path:url(#SVGID_00000100375924780538613590000017290757827668548260_);}
	.st2{fill:#212123;stroke:#000000;stroke-width:11;stroke-linecap:round;stroke-linejoin:round;stroke-miterlimit:10;}
	.st3{fill:#212123;}
	.st4{fill:#FFC9A9;}
	.st5{fill:#9F2D2C;}
	.st6{fill:#331A1E;}
	.st7{fill:#D54141;}
	.st8{fill:#D23E3E;}
	.st9{opacity:0.08;}
	.st10{fill:#CC3E3C;}
	.st11{fill:#A73736;}
	.st12{fill:#F8C9AF;}
	.st13{fill:#C9A58D;}
	.st14{opacity:0.13;}
	.st15{fill:#2B1A12;}
	.st16{opacity:0.33;}
	.st17{opacity:0.2;}
	.st18{fill:#C09181;}
	.st19{fill:#898989;}
	.st20{opacity:0.18;}
	.st21{fill:#FFFFFF;}
	.st22{opacity:0.21;}
	.st23{opacity:0.69;}
	.st24{opacity:0.32;}
	.st25{opacity:0.26;}
	.st26{fill:#201614;}
	.st27{fill:#E5A88B;}
	.st28{fill:#452624;}
	.st29{fill:none;stroke:#4D4D4D;stroke-width:3;stroke-miterlimit:10;}
	.st30{fill:#C19081;}
	.st31{fill:#D8B89F;}
	.st32{opacity:0.4;}
	.st33{fill:#EDCFC5;}
	.st34{fill:#352321;}
	.st35{fill:#E6E6E6;}
	.st36{fill:#D8BCA7;}
	.st37{fill:#1D1D1D;}
	.st38{fill:#191919;}
	.st39{display:none;}
</style>
<g id="Layer_2">
	<defs>
		<circle id="SVGID_1_" cx="1024" cy="1023.9" r="1024"/>
	</defs>
	<clipPath id="SVGID_00000152961203725179793530000009073596603190633649_">
		<use xlink:href="#SVGID_1_"  style="overflow:visible;"/>
	</clipPath>
	
		<rect y="-0.1" style="clip-path:url(#SVGID_00000152961203725179793530000009073596603190633649_);fill:#FCCA78;" width="2049.42" height="2049.42"/>
	<g style="clip-path:url(#SVGID_00000152961203725179793530000009073596603190633649_);">
		<path class="st2" d="M1525.3,500.05c1.34-36.1,5.09-89.54-15.32-137.3c-22.16-60.47-52.42-69.16-52.42-69.16
			c23.86,6.08,55.32,45.95,55.32,45.95c-85.27-175.94-194.7-164.78-223.64-172c-2.68-1.03-5.4-2.02-8.14-3
			c-96.95-81.92-278.68,10.39-278.68,10.39c-80.65-88.43-212.56-68.33-212.56-68.33c-190.44,0-211.63,87.91-252.77,141.74
			c-72.45,61.5-128.99,154.39-105.33,282.22c1.62,8.73,4.78,17.08,7.19,25.83c5.18,18.64,10.41,37.69,15.52,56.46
			c13.05,48.31,54.56,133.67,65.8,182.14c5.43-7.73,2.97-16.65,2.19-27.48c1.51-1.15,16.34,38.96,18.46,48.61
			c7.02-4.07-0.24-24.11-2.02-31.24c0,0,13.08,8.59,18.99,75.67c0.51,4.96,2.14,15.93,3.31,22.22c0.06-0.14,0.12-0.26,0.15-0.34
			c0.54,3.12,1.22,6.66,2.03,10.4c-4.34,3.17-9.56,4.96-9.56,4.96c-1.54-11.92-40.74-22.68-40.74-22.68
			c-39.21-0.38-27.29,34.98-27.29,34.98c5.77,9.61,9.48,54.58,9.48,54.58l7.94,60.73l15.89,45.61
			c1.54,48.18,31.26,79.95,31.26,79.95c1.03,16.4,19.48,24.09,19.48,24.09c41.51,26.65,70.81-2.46,70.81-2.46l-41.09-193.13
			c0.21-1.08,0.33-2.25,0.41-3.46c0.26,0.94,0.47,1.72,0.62,2.28c6.13-32.82,3.34-65.42,2.79-99.65
			c-1.26-33.44-3.51-68.09-5.97-100.55c-0.2-7.55,1.28-16.92,3.87-27.28C625.02,776.8,759.06,507.1,759.06,507.1
			c8.4-31.9,47.91-63,70.05-81.23c-48.4,52.06-64.5,128.94-53.22,168.67c0,0,8.58-120.19,114.08-182.05
			c3.71-0.98,7.34-1.89,10.89-2.74c0,0,0,0,0,0c0,0-116.39,64.59-102.83,290.37c0,0,17.23-233.8,138.55-285.22
			c32.77,15.39,154.16-10.18,154.16-10.18c166.54,30.53,227.7,100.36,249.58,154.32c4.41,21.62,4.95,44.66,10.85,71.39
			c4.34,20.2,36.13,65.79,36.14,65.79c25.47,74.53,9.07,113.32,8.3,171.74c-0.66,16.88-4.39,45.52-2.99,63.74
			c-1.07,2.06-1.68,4.11-1.61,6.12l-0.01,0.02c2.68,49.44-5.41,110.34-10.65,143.19c-2.35,14.64-4.12,23.71-4.12,23.71l-30.45,94.74
			c0,0,52.79,15.82,55.87-48.89c0,0,18.45-27.29,15.89-66.24c0,0,29.83-62.25,26.65-100.46c0,0,6.66-35.36,17.42-47.14
			c0,0,10.26-42.03-37.92-30.24c0,0-10.31,5.29-19.35,12.45c0.27-0.34,0.54-0.68,0.83-1.03c0,0,69.04-138.49,98.45-252.11
			c0,0,12.06-58.43,14.94-102.62c4.03-12.2,1.6-58.46,2.28-69.08C1522.39,496,1523.93,498,1525.3,500.05z"/>
		<g>
			<g>
				<path class="st3" d="M1251.06,1549.21c0,0,0,0,0-0.01l-7.84-99.71l-2.68,2.64h-0.01l-1.17,1.16l-0.8,0.78v0.01l7.4,94.14
					c-1.06,1.92-1.88,3.2-2.3,3.85l-30.54,24.98c-0.01,0.01-0.02,0.02-0.02,0.02l-21.25,17.37l-0.01,0.01l-118.39,96.82
					l-124.39,27.42l-4.57,1.01l0.68,4.63l6.17,41.47c-8.9-1.37-26.03-4.1-47.36-7.99h-0.01c-2.22-0.4-4.48-0.82-6.78-1.25
					c-1.14-0.21-2.29-0.42-3.45-0.64c-7.03-1.32-13.9-2.66-20.61-4c-99.23-19.93-162.81-42.22-179.97-63.27l-0.73-0.88l-1.04-0.49
					c-14.5-6.76-26.87-18.27-36.76-34.2c4.43-56.57,104.5-145.8,114.96-154.98c0.01,0,0.01,0,0.01,0v-0.01
					c0.31-0.26,0.54-0.46,0.68-0.59c0.46-0.32,1.63-1.14,3.32-2.34v-0.01c0.03-0.02,0.07-0.04,0.1-0.06
					c2.88-2.04,7.24-5.12,12.2-8.69c2.18-1.57,4.47-3.21,6.8-4.91c-1.3-1.19-2.56-2.36-3.76-3.48c-1.92,1.39-3.79,2.75-5.59,4.04
					c-3.35,2.4-6.42,4.6-8.97,6.4c-1.81,1.28-3.36,2.38-4.55,3.22c-1.68,1.17-2.65,1.86-2.65,1.86s-114.57,98.6-117.66,160.73
					c-0.01,0.03-0.01,0.05-0.01,0.08c0.33,0.54,0.66,1.08,0.99,1.63v0.01c9.35,14.96,21.9,27.98,38.76,35.85
					c23.85,29.26,121.28,52.98,191.8,66.77c0.07,0.02,0.13,0.03,0.2,0.04c3.93,0.77,7.78,1.51,11.53,2.22
					c1.64,0.31,3.26,0.61,4.86,0.9c0.02,0,0.04,0.01,0.06,0.01c1.08,0.21,2.17,0.41,3.23,0.6c6.07,1.11,11.81,2.14,17.14,3.06
					c23.68,4.13,39.21,6.34,39.21,6.34l-0.02-0.11l-7.15-48.07h0.02l125.54-27.68l0.21-0.17l140.01-114.51l0.01-0.01l31.34-25.63
					l0.12-0.1c0,0,1.49-2.05,3.68-6.2L1251.06,1549.21z M225.33,2124.61h1.17v-0.01L225.33,2124.61z M252.11,2124.57l-25.6,0.04
					h48.69L252.11,2124.57z M333.36,2124.6l-10-0.02l-48.17,0.03h58.17L333.36,2124.6z M510.43,2124.45l-166.82,0.15
					c0,0.01,0,0.01,0,0.01h199.28L510.43,2124.45z M848.42,2124.57l-23.65-0.12h-0.68l-22.68-0.11l-2.46,0.1h-0.12l-3.95,0.17
					h181.69L848.42,2124.57z M1199.82,2124.45H976.6c-0.01,0.06-0.02,0.11-0.04,0.16h223.35
					C1199.85,2124.52,1199.82,2124.45,1199.82,2124.45z M1201.38,2124.45c-0.08,0.07-0.15,0.12-0.22,0.16h861.93v-0.16H1201.38z
					 M2061.39,1822.07c-0.19,0.07-0.36,0.1-0.54,0.1c-1.41,0-3.48-1.91-4.72-3.54c-7.6-37.01-30.82-68.52-49.06-88.5
					c-18.26-19.98-34.85-32.43-37.98-34.72l-47.55-54.9c-1.14-3.48-5.21-14.79-13.05-26.77c-12.39-18.91-28.38-30.4-46.3-33.26
					l-98.86-35.08c-2.95-1.59-19.71-9.77-49.15-9.77c-9.39,0-19.22,0.84-29.24,2.51c-4.17-1.6-16.81-5.81-33.56-5.81
					c-16.1,0-31.33,3.85-45.29,11.46c-51.08-3.12-250.28-54.67-275.89-61.33c-1.88-4.62-7.63-14.89-26.7-40.46
					c-12.63-16.91-25.15-32.56-25.28-32.71l-0.08-0.1l-3.27-4.08l-0.11-0.14l-0.75-0.93l-3.83,5.54l-7.18,10.41l-19.66,19.99
					l-3.85,3.91l-1.61,1.63l0.14,1.77l0.02,0.26l0.02,0.26l0.32,4.08l0.06,0.76l0.11,1.42v0.01l7.4,94.14
					c-1.06,1.92-1.88,3.2-2.3,3.85l-30.54,24.98c-0.01,0.01-0.02,0.02-0.02,0.02l-21.25,17.37l-0.01,0.01l-118.39,96.82
					l-124.39,27.42l-4.57,1.01l0.68,4.63l6.17,41.47c-8.9-1.37-26.03-4.1-47.36-7.99h-0.01c-2.22-0.4-4.48-0.82-6.78-1.25
					c-1.14-0.21-2.29-0.42-3.45-0.64c-7.03-1.32-13.9-2.66-20.61-4c-99.23-19.93-162.81-42.22-179.97-63.27l-0.73-0.88l-1.04-0.49
					c-14.5-6.76-26.87-18.27-36.76-34.2c4.43-56.57,104.5-145.8,114.96-154.98c0.01,0,0.01,0,0.01,0v-0.01
					c0.31-0.26,0.54-0.46,0.68-0.59c0.46-0.32,1.63-1.14,3.32-2.34v-0.01c0.03-0.02,0.07-0.04,0.1-0.06
					c2.88-2.04,7.24-5.12,12.2-8.69c2.18-1.57,4.47-3.21,6.8-4.91c0.45-0.33,0.9-0.66,1.36-0.99c0.78-0.57,1.58-1.14,2.37-1.73
					c0.07-0.05,0.13-0.09,0.19-0.14c0.07-0.05,0.15-0.11,0.22-0.16c0.14-0.1,0.27-0.2,0.41-0.3c1.2-0.88,2.37-1.74,3.47-2.56
					c7.34-5.42,12.6-9.44,16.39-12.48c9.22-7.41,9.74-8.95,10.2-10.36c0.91-2.77-0.13-5.55-5.08-13.52
					c-2.86-4.61-7.08-10.92-12.53-18.76c-9.84-14.17-21.64-30.37-29.44-41.09c-3.66-5.02-7.12-9.77-7.68-10.63
					c-0.95-1.66-2.71-2.64-4.73-2.64c-1.58,0-3.67,0-20.46,8.9c-1.93,1.02-4.04,2.17-6.38,3.43c-10.45,5.69-20.48,11.45-21.07,11.77
					c-1.92,1.07-3.85,2.3-5.83,3.68c-0.19,0.12-0.38,0.25-0.57,0.39c-1.14,0.8-2.29,1.65-3.44,2.55
					c-33.09,25.58-71.43,85.83-79.22,98.38c-6,0.78-18.93,4.13-52.09,16.7c-23.26,8.82-53.65,21.11-90.31,36.53
					c-58,24.41-113.73,49.11-121.73,52.65h-1.01l-0.71,0.71c-5.34,2.04-29.84,11.71-58.63,28.39
					c-41.7,24.15-71.58,50.66-88.83,78.82c-4.84,2.46-22.51,11.55-41.71,22.79c-27.73,16.24-46.55,29.79-55.97,40.28
					c-28.04,19.33-59.62,40.01-64.37,41.44l-1.13,0.24l-0.93,0.76c-0.12,0.1-12.3,10.07-24.42,20.91
					C17.76,1845.57,3.7,1857.9,0,1862.35v8.23c0.7-8.2,56.61-52.12,56.61-52.12c0.02,0,0.04-0.01,0.06-0.02
					c0.1-0.02,0.21-0.05,0.34-0.09c8.74-2.78,66.22-42.43,66.22-42.43c10.68-12.16,33.97-27.33,55.16-39.73c0,0,0.01,0,0.01-0.01
					c21.62-12.67,41.04-22.44,42.62-23.22c0.04-0.03,0.07-0.04,0.09-0.05c0.01-0.01,0.01-0.01,0.01-0.01
					c0.02-0.03,0.03-0.05,0.05-0.08c40.21-67.07,145-106.04,146.63-106.64c0.01-0.01,0.02-0.01,0.02-0.01s0.18-0.08,0.52-0.23
					c0.01-0.01,0.01-0.01,0.02-0.01c12.55-5.58,238.18-105.7,265.39-105.86h0.07c0,0,43.38-71.33,79.2-99.1
					c1.16-0.9,2.32-1.77,3.46-2.57c0.18-0.13,0.37-0.26,0.55-0.38c1.83-1.26,3.63-2.4,5.4-3.39c0,0,15.86-9.11,28.92-15.97h0.01
					c7.9-4.16,14.77-7.49,16.51-7.49c0.2,0,0.34,0.05,0.39,0.14c1.22,2.27,53.77,72.49,54.32,79.56v0.05c0.01,0.12,0,0.21-0.03,0.29
					c-0.36,1.11-3.7,4.09-8.57,8.01c-4.64,3.7-10.68,8.26-16.86,12.83c-1.34,0.98-2.69,1.98-4.03,2.96
					c-0.02,0.02-0.04,0.03-0.06,0.05h-0.01c-0.12,0.09-0.24,0.17-0.35,0.25c-0.77,0.57-1.54,1.12-2.3,1.68
					c-0.47,0.35-0.95,0.69-1.43,1.03c-1.92,1.39-3.79,2.75-5.59,4.04c-3.35,2.4-6.42,4.6-8.97,6.4c-1.81,1.28-3.36,2.38-4.55,3.22
					c-1.68,1.17-2.65,1.86-2.65,1.86s-114.57,98.6-117.66,160.73c-0.01,0.03-0.01,0.05-0.01,0.08c0.33,0.54,0.66,1.08,0.99,1.63
					v0.01c9.35,14.96,21.9,27.98,38.76,35.85c23.85,29.26,121.28,52.98,191.8,66.77c0.07,0.02,0.13,0.03,0.2,0.04
					c3.93,0.77,7.78,1.51,11.53,2.22c1.64,0.31,3.26,0.61,4.86,0.9c0.02,0,0.04,0.01,0.06,0.01c1.08,0.21,2.17,0.41,3.23,0.6
					c6.07,1.11,11.81,2.14,17.14,3.06c23.68,4.13,39.21,6.34,39.21,6.34l-0.02-0.11l-7.15-48.07h0.02l125.54-27.68l0.21-0.17
					l140.01-114.51l0.01-0.01l31.34-25.63l0.12-0.1c0,0,1.49-2.05,3.68-6.2l-0.01-0.09c0,0,0,0,0-0.01l-7.84-99.71v-0.01l-0.16-2.07
					l0.01-0.01l0.79-0.8l23.02-23.41l0.01-0.02l0.07-0.09l7.35-10.65c0,0,0.29,0.36,0.83,1.04c6.51,8.18,49.15,62.03,51.09,73.14
					c0,0,0,0,0.01,0c1.78,0.47,228.34,59.88,281.05,62.27h0.01c0.05,0.01,0.09,0.01,0.13,0.01l0.6-0.43
					c15.44-8.52,30.63-11.1,43.35-11.1c19.38,0,33.01,5.97,33.01,5.97c11.08-1.92,21.03-2.67,29.78-2.67
					c30.92,0,47.1,9.33,47.1,9.33l99.68,35.37c40.74,6.14,56.11,57.65,56.11,57.65l48.54,56.04l0.02,0.02l0.05,0.06
					c0,0,71.9,51.17,85.73,121.5c0,0,4.1,6.55,9.43,6.55c0.73,0,1.49-0.12,2.25-0.4v-5.33L2061.39,1822.07z"/>
			</g>
		</g>
		<g>
			<g>
				<path class="st4" d="M1247.39,1555.39c0,0-64.06,109.17-171.7,140.42l-125.56,27.68l7.17,48.18c0,0-27.23-3.89-64.51-10.92
					c-70.96-13.37-226.47-33.85-251.68-64.76c0,0-1.15-83.41,2.69-100.71c0,0,32.68-62.28,49.97-66.88c0,0,65.64-37.52,80.82-39.98
					c0.79-0.14-8.13,43.87-7.43,43.91c0,0,5.62-55.32,1.09-78.45c-0.32-1.66-0.7-3.15-1.13-4.45c1.78,1.44,3.58,2.85,5.42,4.27
					c0.76,0.58,1.54,1.16,2.31,1.75c0,0,84.56,101.48,161.44,96.1c0,0,127.62,40.24,218.33-15.89l84.57-84.57L1247.39,1555.39z"/>
			</g>
		</g>
		<g>
			<g>
				<polygon class="st5" points="1266.89,1423.08 1243.06,1447.29 1251.52,1554.89 1290.73,1512.64 1277.27,1423.08 				"/>
			</g>
		</g>
		<g>
			<g>
				<path class="st6" d="M951.95,2011.95c0,0,31.78-38.82,33.32-38.82c1.54,0,4.29-3.59,4.29-3.59h5.96c0,0,37.97,9.23,52.77,0.51
					l36.92,154.29H967.33L951.95,2011.95z"/>
			</g>
		</g>
		<g>
			<path class="st5" d="M623.24,1554.89c0,0,4.05-45.33,10.58-54.94c0,0,51.49-84.69,88.61-105.44c0,0,44.58-25.63,45.83-23.32
				s55.83,75.24,54.29,79.9c-1.54,4.66-55.37,42.33-55.37,42.33s-114.67,98.68-117.67,160.81l-8.84,9.09l-18.38-51.94
				L623.24,1554.89z"/>
		</g>
		<g>
			<g>
				<path class="st7" d="M2063.1,1826.68v297.66h-226.55l-4.27-12.04l-29.18-82.5l13.74-79.91l33.53-195.08l115.23-55.74l0.07-0.03
					c0,0,71.89,51.16,85.73,121.5C2051.41,1820.53,2056.71,1828.98,2063.1,1826.68z"/>
			</g>
		</g>
		<g>
			<g>
				<path class="st8" d="M1838.6,2124.34c0,0-70.7-256.96,127.08-425.32l-48.6-56.12c0,0-15.38-51.51-56.12-57.66l-99.68-35.36
					c0,0-26.65-15.38-76.88-6.66c0,0-37.41-16.4-76.36,5.12l-111.85,80.72l-81.87,177.64l-9.58,138.59l-39.88,179.05H1838.6z"/>
			</g>
		</g>
		<g>
			<g>
				<path class="st7" d="M1607.44,1548.77c0,0-94.55,77.64-100.71,159.14c0,0-63.46,330.15-141.88,416.43H1066.5
					c0,0-31.38-129.07-18.31-154.1c0.01-0.02,0.02-0.04,0.03-0.05c0.02-0.04,0.03-0.06,0.04-0.08c0.02-0.03,0.03-0.05,0.03-0.05
					s193.21-104.55,243.95-280.6c0,0,42.09-92.27,37.64-174.47c-0.52-9.69-1.69-19.24-3.65-28.48
					C1326.23,1486.5,1554.78,1546.46,1607.44,1548.77z"/>
			</g>
		</g>
		<path class="st4" d="M668.77,629.43c0,0-55.56,77.64-69.34,128.54c0.47-2.42,1.01-4.9,1.61-7.43
			c12.18-51.02,50.3-122.31,50.3-122.31c3.68-41.22,16.62-79.77,33.23-110.48C671.02,546.95,664.23,583.55,668.77,629.43z"/>
		<path class="st4" d="M1072.67,382.36c-0.91-0.22-1.82-0.44-2.74-0.66c0.1,0.01,0.19,0.04,0.28,0.06
			C1071.03,381.96,1071.85,382.16,1072.67,382.36z"/>
		<path class="st4" d="M1307.86,500.79c0,0-108.04-85.07-229.45-116.98c121.83,31.69,230.48,117.24,230.48,117.24
			c2.13,2.25,4.21,4.58,6.23,7.01C1312.54,505.58,1310.11,503.16,1307.86,500.79z"/>
		<path class="st4" d="M1393.44,885.88l-2.55,37.73c0.34,3.27,0.63,6.62,0.85,10.03c0.06,0.77,0.11,1.55,0.15,2.33
			c0.03,0.35,0.05,0.7,0.07,1.06c0.02,0.36,0.04,0.71,0.06,1.08c0.84,15.62,0.62,32.39-0.25,49.05c-0.03,0.56-0.06,1.11-0.09,1.67
			c-0.25,4.51-0.55,8.99-0.88,13.44c-0.03,0.4-0.06,0.8-0.09,1.2v0.01c-0.28,3.7-0.58,7.36-0.91,10.99c0,0.04-0.01,0.09-0.01,0.15
			c-0.3,3.32-0.61,6.6-0.94,9.84c-2.27,22.17-5.16,42.27-7.48,56.84c-1.64,10.2-2.99,17.69-3.66,21.3c-0.16,0.86-0.28,1.5-0.36,1.9
			c-0.01,0.07-0.02,0.13-0.03,0.18c-0.04,0.21-0.06,0.32-0.06,0.32l-0.62,1.9l-7.43,23.12l-0.07,0.23l-2.55,7.96l-0.1,0.3
			l-19.69,61.23v0.01l-4.14,12.88c-10.11,94.29-44.72,158.8-67.78,192.48c-12.5,18.23-21.6,27.43-21.6,27.43l-9.76,9.61l-5.47,5.39
			l-1.03,1.01l-19.71,19.4l-63.97,62.99c-10.06,6.22-20.52,11.27-31.15,15.33h-0.01c-0.03,0.02-0.08,0.03-0.11,0.04
			c-3.22,1.24-6.45,2.37-9.7,3.42c-1.02,0.33-2.03,0.65-3.05,0.96c-2.11,0.65-4.22,1.26-6.33,1.83c-1.01,0.28-2.01,0.55-3.02,0.81
			c-1.46,0.37-2.92,0.74-4.38,1.08c-1.21,0.29-2.41,0.56-3.62,0.83c-3.13,0.68-6.27,1.3-9.4,1.86c-10.75,1.91-21.43,3.05-31.83,3.62
			c-1.6,0.09-3.19,0.17-4.77,0.23c-3.96,0.15-7.88,0.22-11.74,0.22c-36.94,0-68.49-6.52-84.11-10.44c-0.17-0.04-0.33-0.08-0.49-0.12
			c-0.47-0.11-0.92-0.23-1.35-0.34c-0.15-0.04-0.29-0.08-0.44-0.11c-0.3-0.08-0.58-0.16-0.86-0.23c-4.74-1.25-7.35-2.08-7.35-2.08
			c-0.05,0-0.09,0.01-0.14,0.01c-2.06,0.14-4.14,0.21-6.21,0.21c-9.15,0-18.41-1.33-27.61-3.68c-0.32-0.08-0.64-0.16-0.95-0.24
			c-42.67-11.21-83.97-43.92-107.87-65.68c-1.31-1.19-2.56-2.35-3.76-3.47c-0.02-0.02-0.05-0.04-0.07-0.07
			c-0.48-0.45-0.96-0.89-1.42-1.33l-0.01-0.01c-9.92-9.33-15.71-15.69-15.71-15.69c-2.64-1.98-5.22-3.98-7.73-6.01
			c-0.13-0.11-0.27-0.22-0.4-0.32c-2.47-2-4.88-4.02-7.22-6.06c-17.79-15.43-32.09-31.79-43.49-47.5c-0.02-0.03-0.04-0.05-0.06-0.07
			c-0.97-1.34-1.92-2.68-2.85-4.01c-29.36-41.95-38.19-78.25-38.19-78.25L639.81,1165l-6.64-31.38l-3.49-16.46L600.6,979.74
			c0.85-3.23,1.52-7.32,2.06-12.11v-0.01c0.14-1.24,0.27-2.54,0.38-3.87c20.54-53.7,37.63-146.45,37.63-146.45
			c2.67-34.96,31.28-32.64,39.62-41.67c2.14-7.1,15.1-10.51,15.1-10.04c0.54-0.59,0.92-1,1.12-1.21c0.05-0.05,0.1-0.1,0.14-0.15
			l0.01-0.01c5.29-6.09,13.19-9.98,21.26-13.47c6.58-2.85,14.81-4.72,9.39-3.77c22.96-4.55,32-4.39,55.75-5.88
			c4.08-0.25,8.21-0.07,12.31-0.09c36.09-1.35,58.59,9.03,92.04,20.08c5.85,1.55,9.21,5.03,15.07,6.54
			c5.14,1.32,11.42-6.42,15.69-8.84c3.67-2.09,7.27-4.49,10.11-7.26c5.63-5.5,5.29-10.93,1.55-17.3
			c-4.6,15.41-25.82,26.73-25.82,26.73c-16.6-12.13-94.46-30.38-94.46-30.38c-58.74-12.49-97.73,7.53-119,24.74
			c-2.87,5.99-7.3,11.06-12.73,15.47c-0.98,0.8-1.97,1.57-2.98,2.32c0.19,0.09,0.39,0.17,0.6,0.26c-0.21,0-0.39,0-0.57,0.01
			c-0.13,0.01-0.26,0.01-0.38,0.03h-0.04c0,0,0,0.01-0.01,0.01c-0.31,0.03-0.59,0.08-0.83,0.15c-0.51,0.14-0.89,0.37-1.26,0.66
			c-0.12,0.09-0.23,0.19-0.35,0.3c-0.24,0.22-0.51,0.47-0.82,0.75c-0.01,0.01-0.01,0.01-0.02,0.02c0,0.01,0,0.01-0.01,0.02
			c-0.14,0.2-0.21,0.31-0.21,0.31c0-0.05,0-0.09,0.01-0.14v-0.01c1.29-30.62,12.59-52.13,24.86-66.62
			c0.8-8.18,2.03-16.31,3.77-24.37c1.01-4.63,2.43-8.93,4.4-12.89c0,0,0-0.01,0.01-0.02c0.74-2.08,6.14-132.95,58.18-155.57
			c25.77-19.37,22.31-41.67,22.31-41.67c-0.56-15.94,0.43-20.26,10.06-28.12c8.1-6.61,16.9-12.75,25.89-18.61
			c6.52-4.25,13.85-7.7,20.78-11.57c2.24-1.24,18.74-5.2,20.9-6.53c15.18-4.6,16.78-3.96,32.65-6.09
			c12.06-1.61,24.31-2.34,36.48-3.47c20.41-2.4,40.6-1.25,60.49,2.87c14.16,2.93,28.22,6.16,42.32,9.26
			c23.57,5.19,47.13,10.42,70.72,15.53c7.04,1.53,14.2,2.69,21.31,4.02c9.09-0.12,17.85,1.02,26.09,4.23
			c13.39,2.86,23.81,9.59,34.02,16.58c8.14,5.86,16.19,11.79,24.44,17.54c9.56,6.66,20.27,11.67,32.61,14.57
			c30.32,7.13,56.25,19.92,77.07,38.99c9.92,9.1,16.13,19.5,15.41,31.82c-0.32,5.62-1.46,11.22-2.53,16.8
			c-2.71,13.99-2.21,17.08-1.51,28.17l-0.35-0.3l4.56,94.56l0.07,1.32V696c0.2,1.94,0.85,4.34,2.1,7.31
			c0.68,1.14,1.31,2.33,1.91,3.53c5.4,10.92,8.37,22.26,9.68,33.92c20.61,32.24,20.61,69.4,20.61,69.4
			c-3.19-5.83-6.66-11.17-10.39-16.07l3.09,9.79c-1.56-2.13-3.17-4.18-4.82-6.17c0.92,2.89,2,5.75,3.11,8.6
			c5.57,14.3,12.9,28.02,21.07,41.48c1.6,2.62,3.06,5.28,4.58,7.92c4.05,4.36,5.66,9.23,5.41,14.65c-0.13,2.79,0.21,5.73,0.56,8.65
			c0.27,2.33,0.55,4.64,0.57,6.86V885.88z"/>
		<g class="st9">
			<g>
				<path d="M1202.24,1854.69c0,0-80.2,76.92-89.09,269.65h-46.64c0,0-28.98-111.23-18.21-154.28l104.05-122.13L1202.24,1854.69z"/>
			</g>
		</g>
		<g>
			<g>
				<path class="st3" d="M767.13,1449.43c1.78,1.44,3.58,2.85,5.42,4.27c0.76,0.58,1.54,1.16,2.31,1.75
					c0,0,80.25,96.31,155.47,96.31c2,0,3.98-0.07,5.97-0.21c0,0,44.29,13.96,99.24,13.96c38.32,0,81.82-6.79,119.09-29.85
					l84.57-84.57l8.2,104.3c0,0-71.24,52.07-178.87,83.32l-229.06,28.96l61.65,94.96c-2.41-0.66-5.17-1.29-8.32-1.88
					c-70.96-13.37-226.47-33.85-251.68-64.76c0,0,5.56-22.79,9.4-40.09c0,0,5.71-53.39,65.94-108.67c0,0,35.76-38.86,53.34-54.71
					c-0.52,15.93-1.82,31.09-2.37,37.09c-0.26,1.7-0.36,2.7-0.26,2.71c0,0,0.1-0.97,0.26-2.71c1.45-9.57,7.63-41.2,7.18-41.2
					c0,0-0.01,0-0.01,0c-1.37,1.08-2.99,2.47-4.8,4.1c0.47-14.27,0.32-29.16-1.54-38.64
					C767.94,1452.22,767.56,1450.73,767.13,1449.43L767.13,1449.43z M901.11,1762.63c26.12,7.15,11.38,17.53,11.38,17.53
					L901.11,1762.63L901.11,1762.63z M756.95,1434.76l5.42,16.26c0.36,1.09,0.69,2.37,0.97,3.81c1.44,7.35,1.96,19.56,1.51,35.41
					c-17.56,16.18-49.2,50.46-51.94,53.43c-31.65,29.09-48.24,57.7-56.59,76.59c-8.53,19.29-10.47,32.57-10.75,34.79
					c-3.79,17.02-9.27,39.52-9.32,39.74l-0.59,2.43l1.58,1.93c9.99,12.25,36.78,23.25,84.34,34.63
					c39.37,9.42,86.59,17.44,124.53,23.88c16.92,2.87,32.9,5.59,45.77,8.01c2.18,0.41,4.22,0.85,6.1,1.32l10.32,15.9l2.84,4.37
					l4.26-3c0.76-0.53,7.37-5.43,6.12-12.59c-1.01-5.79-6.65-10.17-17.2-13.35l-56.28-86.68l221.12-27.95l0.39-0.05l0.38-0.11
					c56.03-16.27,102.05-38.23,130.79-53.79c31.2-16.89,48.91-29.76,49.65-30.3l2.26-1.65l-0.22-2.79l-8.2-104.3l-0.85-10.85
					l-7.7,7.7l-84.15,84.15c-31.13,19.11-70.14,28.8-115.96,28.8c-53.46,0-97.29-13.6-97.73-13.73l-0.91-0.29l-0.95,0.07
					c-1.87,0.13-3.71,0.19-5.62,0.19c-37.38,0-76.51-25.57-102.77-47.02c-28.76-23.5-48.65-47.24-48.85-47.48l-0.37-0.45l-0.46-0.35
					l-0.07-0.06c-0.74-0.56-1.48-1.11-2.21-1.67c-1.99-1.53-3.73-2.9-5.31-4.18L756.95,1434.76L756.95,1434.76z"/>
			</g>
		</g>
		<g>
			<g>
				<path class="st10" d="M957.3,1771.67l-7.17-48.18l125.56-27.68l171.7-140.42c0,0,30.27-41.6,19.51-132.31l7.42-10.76
					c0,0,49.82,62.15,51.92,74.19c0,0,35.22,154.09-37.43,278.08L1105.2,1955.7l-36.7-5.64l-96.61-130.69L957.3,1771.67z"/>
			</g>
		</g>
		<g>
			<g>
				<path class="st7" d="M976.56,2124.5l-128.15-0.04l-80.75-0.03l-257.23-0.09l-166.83,0.11l-20.24,0.02l-48.17,0.03l-88.41-0.16
					l-1.96-97.39l-4.13-205.98l-0.42-21.01l-1.18-59.01l-0.7-4.89c22.22-13.02,42.11-22.98,42.72-23.28
					c0.01-0.01,0.01-0.01,0.01-0.01c40.18-67.12,145.05-106.12,146.69-106.72c0.01-0.01,0.02-0.01,0.02-0.01s238.32-106.1,266-106.1
					c0,0-35.75,162.59-17.3,201.81c0,0,62.12,109.76,134.66,198.79c0.69,0.85,1.39,1.71,2.09,2.55
					c46.32,56.44,96.67,103.95,137.7,108.86c0,0,56.89,5.51,60.98,0C951.95,2011.95,982.71,2102.64,976.56,2124.5z"/>
			</g>
		</g>
		<g>
			<g>
				<path class="st11" d="M538.1,2065.5c0,0-0.55-2.97-1.67-8.5C537.52,2061.05,538.1,2063.95,538.1,2065.5z"/>
			</g>
		</g>
		<g>
			<g>
				<path class="st10" d="M391.28,1822.84l119.15,301.5l-177.07,0.16l-17.43-29.5c0,0-75.94-324.62-84.25-366.83c0,0,0,0,0-0.01
					c1.81-2.24,3.63-4.39,5.48-6.41c5.46-6.01,11.08-11.04,16.76-14.61c0,0,71.56-84.87,157.52-39.62
					c2.27,6.61,3.17,12.07,3.18,16.56c74.15,148.46,113.53,331.7,121.8,372.93c-15.45-57.93-133.63-352.94-133.63-352.94
					c-7.69-30.75-47.66-26.91-47.66-26.91C325.07,1714.04,391.28,1822.84,391.28,1822.84z"/>
			</g>
		</g>
		<g>
			<g>
				<path class="st8" d="M343.61,2124.5l-20.25-0.03l-78.67-0.13l-59.87-97.39l-128.22-208.6c7.18-1.54,66.62-42.55,66.62-42.55
					c10.68-12.16,33.97-27.33,55.16-39.73c22.22-13.02,42.11-22.98,42.72-23.28c0.01-0.01,0.01-0.01,0.01-0.01l15.87,8.66
					c0.06,0.1,0.12,0.2,0.18,0.31c31.69,53.93,63.93,174.8,63.93,174.8c12.85,6.97,32.53,181.64,32.27,181.62
					c-0.25-0.03,9.87,44.62,10.24,46.28C343.61,2124.48,343.61,2124.5,343.61,2124.5z"/>
			</g>
		</g>
		<g>
			<g>
				<path class="st3" d="M668.77,629.43c0,0-55.56,77.64-69.34,128.54c0.47-2.42,1.01-4.9,1.61-7.43
					c12.18-51.02,50.3-122.31,50.3-122.31c3.68-41.22,16.62-79.77,33.23-110.48C671.02,546.95,664.23,583.55,668.77,629.43z"/>
			</g>
		</g>
		<g>
			<g>
				<path class="st3" d="M1308.89,501.05c2.13,2.25,4.21,4.58,6.23,7.01c-2.58-2.48-5.01-4.9-7.26-7.27
					c0,0-108.04-85.07-229.45-116.98C1200.24,415.5,1308.89,501.05,1308.89,501.05z"/>
				<path class="st3" d="M1393.44,885.88l-2.55,37.73c0.34,3.27,0.63,6.62,0.85,10.03c0.06,0.77,0.11,1.55,0.15,2.33
					c-0.3,0.27-0.59,0.5-0.85,0.72c-0.04,0.03-0.07,0.05-0.1,0.08c-0.26-4.59-0.62-9.07-1.08-13.42l3.01-44.34
					c0.27,2.33,0.55,4.64,0.57,6.86V885.88z"/>
			</g>
		</g>
		<g>
			<g>
				<path class="st12" d="M1373.45,1021.29c-0.6,2.08-0.84,3.26-0.84,3.26C1372.63,1023.56,1372.92,1022.46,1373.45,1021.29z"/>
			</g>
		</g>
		<g>
			<g>
				<path class="st13" d="M947.58,1380.44c0,0,8.7,8.3,59.82,5.61c0,0,44.41,10.7,66.07,0.39
					C1073.47,1386.44,984.15,1376.48,947.58,1380.44z"/>
			</g>
		</g>
		<g>
			<g>
				<path class="st13" d="M1069.73,1148.59c-9.01-3.91-24.38-4.65-24.38-4.65c3.34-0.97,6.78-2.4,10.29-4.38
					C1055.64,1139.57,1061.06,1143.96,1069.73,1148.59z"/>
			</g>
		</g>
		<g class="st14">
			<g>
				<g>
					<path class="st15" d="M1107.11,984.63c0,0-5.97,31.89,20.73,69.57c0,0,10.79,14.22,17.71,17.3c0,0-24.98-64.96-26.52-92.64
						C1119.02,978.86,1109.61,974.61,1107.11,984.63z"/>
				</g>
			</g>
		</g>
		<g>
			<g>
				<path class="st4" d="M640.66,1172.6c0,0-29.3,29.11-70.81,2.46c0,0-18.45-7.69-19.48-24.09c0,0-29.73-31.78-31.26-79.95
					l-15.89-45.61l-7.94-60.73c0,0-3.72-44.97-9.48-54.58c0,0-11.92-35.36,27.29-34.98c0,0,39.21,10.76,40.74,22.68
					c0,0,9.54-3.27,13.56-8.81c1.08-1.49,3.37-1.25,4.19,0.39c7.96,16.02,32.29,67.48,27.99,90.1L640.66,1172.6L640.66,1172.6z"/>
			</g>
		</g>
		<g class="st16">
			<g>
				<g>
					<path class="st15" d="M491.69,904.37c0.03,0.81,24.6,27.93,21.53,59.45c0,0-4.66,81.67,28.44,135.3
						c0,0,13.33,17.17,19.67,21.11c0,0-10.76,16.82-9.42,29.69c0,0,8.07-35.3,37.67-25.56c0,0-8.97-20.67,2.05-28.21
						c0,0,29.2,6.06,34.91,14.83l-1.79-8.43c0,0-52.84-26.49-68.48-24.95c0,0,25.37,8.86,23.06,17.24c0,0-1.47,24.62-26.39,4.03
						c0,0-32.54-19.86-34.47-99.81c0,0,2.69-41.64,7.82-44.2c0,0,41.26,28.96,41.26,41.51c0,0-6.41-35.36-41.77-61.5
						C525.77,934.87,491.05,886.56,491.69,904.37z"/>
				</g>
			</g>
		</g>
		<g class="st16">
			<g>
				<g>
					<path class="st15" d="M622.78,1088.53c-0.45-2.12-29.1-25.45-30.38-34.93c0,0-3.29-25.62-11.28-27.93
						c0,0-38.44-9.74-34.59-23.06c0,0,32.8-23.58,39.98-4.36c0,0,15.86,2.62,14.73-10.99L622.78,1088.53z"/>
				</g>
			</g>
		</g>
		<g>
			<g>
				<path class="st4" d="M1461.61,936.75c-10.76,11.78-17.42,47.14-17.42,47.14c3.18,38.21-26.65,100.46-26.65,100.46
					c2.56,38.95-15.89,66.24-15.89,66.24c-3.08,64.71-55.87,48.89-55.87,48.89l30.45-94.74c0,0,1.77-9.06,4.12-23.71
					c5.24-32.85,13.33-93.75,10.65-143.19l0.01-0.02c-0.48-14.3,32.69-31.31,32.69-31.31
					C1471.87,894.72,1461.61,936.75,1461.61,936.75z"/>
			</g>
		</g>
		<g class="st16">
			<g>
				<g>
					<path class="st15" d="M1446.57,938.28c-0.04,0.77-23.95,26.17-21.6,56.26c0,0,2.95,77.91-29.58,128.41
						c0,0-3.51,9.79-9.63,13.43c0,0,9.46,9.02,7.94,21.27c0,0-7.05-20.61-28.24-19.39l2.65-8.26c3.69,0.34,8.98-1.48,16.54-7.49
						c0,0,31.37-18.34,34.67-94.48c0,0-1.8-39.72-6.63-42.26c0,0-12.09,8.15-22.99,17.46c0.36-4.85,0.69-9.74,0.96-14.64
						c5.74-7.39,13.22-14.99,22.88-21.86C1413.54,966.71,1447.5,921.32,1446.57,938.28z"/>
				</g>
			</g>
		</g>
		<g>
			<g>
				<path class="st13" d="M1375.62,1106.64l0.61-1.9c0,0,0.03-0.17,0.09-0.5c0.08-0.4,0.2-1.04,0.36-1.91
					c0.67-3.6,2.03-11.1,3.66-21.3c2.66-16.7,6.07-40.66,8.42-66.67C1388.59,1019,1391.34,1091.4,1375.62,1106.64z"/>
			</g>
		</g>
		<g class="st17">
			<g>
				<g>
					<path class="st15" d="M1091.19,1162.82c-47.98,16.28-90.23,9.94-120.23-0.28c2.19-0.11,5.31-0.49,9.22-1.52c0,0,0,0,0.01-0.01
						h0.01c0.34-0.14,5.17-2.08,11.58-4.28c4.64-2.19,9.81-5.17,15.42-9.23l0.93-0.76c0.12-0.12,2.33-1.93,4.28-1
						c2.48,1.17,6.17,3.1,10.8,4.8c0.01,0,0.02,0.01,0.03,0.01c7.93,2.9,18.57,5.12,30.39,1.69c3.34-0.97,6.78-2.4,10.29-4.38
						c0,0,5.42,4.39,14.09,9.02c0.93,0.41,1.8,0.85,2.57,1.33c0.02,0.01,0.04,0.02,0.06,0.03
						C1083.82,1159.83,1087.37,1161.42,1091.19,1162.82z"/>
				</g>
			</g>
		</g>
		<g>
			<g>
				<path class="st18" d="M675.44,773.37c-0.21,0-0.39,0-0.57,0.01c-0.13,0.01-0.26,0.01-0.38,0.03h-0.04c0,0,0,0.01-0.01,0.01
					c-0.32,0.02-0.59,0.07-0.83,0.15c-0.51,0.14-0.89,0.37-1.26,0.66c-0.11,0.09-0.23,0.19-0.35,0.3c-0.24,0.22-0.51,0.47-0.82,0.75
					c-0.01,0.01-0.01,0.01-0.02,0.02c0,0.01,0,0.01-0.01,0.02c-0.06,0.05-0.13,0.11-0.2,0.17v-0.01l1.68-3.35
					c0.23,0.1,0.46,0.2,0.69,0.31c0.5,0.22,1,0.45,1.52,0.67C675.03,773.2,675.23,773.28,675.44,773.37z"/>
			</g>
		</g>
		<g>
			<g>
				<path class="st18" d="M689.65,744.05c-0.47-1.39-6.96,8.59-6.79,7.62l-10.23,20.46c0.23,0.1,0.46,0.2,0.69,0.31
					c0.5,0.22,1,0.45,1.52,0.67c1.01-0.75,2-1.52,2.98-2.32c5.43-4.41,9.86-9.48,12.73-15.47c1.62-3.39,2.75-7.08,3.26-11.1
					c0.23-1.8,0.39-3.6,0.5-5.41C692.79,740.45,691.02,743.04,689.65,744.05z"/>
			</g>
		</g>
		<g>
			<g>
				<path class="st18" d="M929.05,723.92c-0.66-0.08-1.32-0.16-1.99-0.24c-0.18,1.66-0.36,3.33-0.54,4.99
					c0.78,1.33,1.6,2.72,2.47,4.17C930.3,730,929.83,726.98,929.05,723.92z M1370.26,810.16c0,0,0-37.16-20.61-69.4v0.04l3.54,26.81
					c1.77,4.03,2.62,8.33,2.34,13.02c-0.1,1.58-0.08,3.14,0.05,4.69c0,0.21,0.02,0.42,0.04,0.63c0.1,1.12,0.24,2.25,0.44,3.37
					c0,0,0,0,0,0.01c0.47,2.82,1.2,5.61,2.08,8.38c1.65,1.99,3.26,4.04,4.82,6.17l-3.09-9.79
					C1363.6,798.99,1367.07,804.33,1370.26,810.16z M1065.29,380.6c-0.82-0.19-1.65-0.37-2.47-0.55c-1.64-0.37-3.29-0.72-4.94-1.07
					c-0.82-0.18-1.65-0.35-2.47-0.5c-2.28-0.46-4.57-0.89-6.86-1.31c-0.19-0.03-0.38-0.07-0.57-0.11c-0.83-0.15-1.66-0.29-2.48-0.44
					c-0.83-0.14-1.66-0.28-2.48-0.42c-1.53-0.26-3.05-0.5-4.58-0.73c-0.66-0.1-1.31-0.2-1.97-0.29c-0.33-0.05-0.65-0.1-0.98-0.14
					c-0.56-0.09-1.12-0.16-1.69-0.24c-0.24-0.04-0.48-0.07-0.72-0.09v-0.01c-0.35-0.05-0.71-0.1-1.07-0.14
					c-0.47-0.07-0.94-0.13-1.42-0.18c-0.38-0.06-0.77-0.11-1.16-0.15c-0.86-0.11-1.72-0.21-2.58-0.31
					c-0.55-0.07-1.11-0.13-1.67-0.19c-1.68-0.18-3.36-0.35-5.04-0.51c-0.35-0.03-0.69-0.07-1.03-0.1c-0.31-0.03-0.62-0.06-0.94-0.08
					c0,0,0-0.01-0.01-0.01c-1.65-0.14-3.31-0.28-4.96-0.39c-0.8-0.06-1.59-0.11-2.39-0.16c-0.03-0.01-0.07-0.01-0.1-0.01
					c-1.32-0.08-2.63-0.16-3.95-0.22c-1.04-0.05-2.07-0.09-3.11-0.13c-0.12-0.01-0.25-0.01-0.38-0.01
					c-0.73-0.03-1.46-0.06-2.19-0.08c-0.46-0.01-0.93-0.01-1.39-0.02c-1.04-0.02-2.08-0.04-3.12-0.05
					c-0.72-0.01-1.44-0.03-2.16-0.04c-3.43-0.01-6.85,0.05-10.26,0.17c-0.02,0-0.04,0-0.06,0c-1.61,0.06-3.22,0.13-4.82,0.22
					c-0.32,0.02-0.63,0.04-0.95,0.06c-1.32,0.08-2.63,0.16-3.95,0.26c-0.44,0.03-0.88,0.07-1.32,0.11c-1.2,0.1-2.41,0.2-3.61,0.32
					c-0.48,0.05-0.95,0.1-1.43,0.14c-1.19,0.12-2.38,0.25-3.57,0.4c-0.45,0.05-0.89,0.11-1.34,0.16c-1.26,0.16-2.51,0.33-3.77,0.51
					c-0.35,0.05-0.7,0.1-1.05,0.15c-0.5,0.07-1.01,0.14-1.51,0.22c-1.03,0.16-2.07,0.33-3.1,0.51c-0.39,0.06-0.77,0.12-1.15,0.2
					c-0.99,0.16-1.97,0.34-2.95,0.52c-1.2,0.23-2.39,0.47-3.59,0.71c-1.19,0.25-2.38,0.51-3.57,0.78c-1.19,0.26-2.37,0.54-3.56,0.83
					c-0.41,0.1-0.82,0.21-1.24,0.31c-0.04,0.01-0.08,0.02-0.12,0.03c-0.73,0.18-1.47,0.37-2.2,0.56c-0.86,0.23-1.71,0.46-2.56,0.71
					c-1.5,0.4-2.99,0.84-4.48,1.29h-0.01c-2.33,0.71-4.66,1.46-6.97,2.26c-0.31,0.11-0.61,0.21-0.92,0.32
					c-0.86,0.3-1.71,0.6-2.56,0.91c-1.15,0.43-2.3,0.86-3.44,1.31c-1.15,0.44-2.29,0.9-3.43,1.37c-2.29,0.94-4.56,1.93-6.82,2.96
					c-0.36,0.17-0.72,0.33-1.07,0.51c-0.77,0.34-1.54,0.71-2.3,1.07c-1.12,0.55-2.24,1.1-3.36,1.67c-1.11,0.56-2.22,1.14-3.33,1.73
					c-4.43,2.36-8.81,4.93-13.12,7.7c0,0-1.21,0.04-3.44,0.21c-0.35,0.03-0.73,0.05-1.13,0.09c-0.14,0.01-0.27,0.02-0.41,0.03
					c-0.26,0.02-0.52,0.04-0.79,0.06c-0.22,0.02-0.44,0.04-0.66,0.06c-0.28,0.03-0.56,0.05-0.85,0.08
					c-0.17,0.02-0.34,0.03-0.51,0.05c-0.33,0.03-0.66,0.06-1.01,0.1c-1.18,0.11-2.47,0.25-3.85,0.41c-0.34,0.04-0.68,0.08-1.03,0.12
					c-0.77,0.09-1.55,0.19-2.36,0.29c-0.84,0.11-1.71,0.23-2.61,0.35c-0.66,0.09-1.33,0.18-2.02,0.28c-0.36,0.05-0.73,0.11-1.1,0.16
					c-0.27,0.04-0.54,0.08-0.81,0.12c-1.36,0.21-2.77,0.43-4.23,0.67c-0.03,0.01-0.06,0.01-0.09,0.01
					c-1.09,0.19-2.21,0.38-3.35,0.57c-0.38,0.07-0.77,0.14-1.15,0.21c-0.59,0.11-1.19,0.22-1.8,0.33c-0.97,0.18-1.96,0.37-2.96,0.56
					c-0.63,0.13-1.26,0.25-1.9,0.38c-1.33,0.27-2.69,0.55-4.07,0.85c-0.53,0.12-1.07,0.23-1.61,0.35c-0.15,0.04-0.31,0.07-0.47,0.11
					c-0.7,0.15-1.41,0.31-2.12,0.47c-0.01,0.01-0.03,0.01-0.05,0.01c-1.33,0.31-2.68,0.63-4.04,0.96c-0.08,0.02-0.16,0.04-0.23,0.06
					c-1.47,0.36-2.95,0.73-4.45,1.12c-1.5,0.39-3.02,0.8-4.55,1.22c-2.3,0.64-4.64,1.31-7.01,2.03c-0.79,0.24-1.59,0.48-2.38,0.73
					c-1.59,0.49-3.2,1.01-4.82,1.54c-1.61,0.53-3.24,1.09-4.88,1.66c-1.64,0.57-3.28,1.17-4.94,1.78c-0.82,0.31-1.65,0.62-2.49,0.94
					c-2.39,0.91-4.8,1.87-7.22,2.88c-0.21,0.09-0.42,0.18-0.64,0.27c-0.72,0.3-1.45,0.61-2.18,0.92c-1.68,0.72-3.37,1.47-5.06,2.23
					c-0.84,0.39-1.68,0.78-2.53,1.17c-1.69,0.8-3.38,1.61-5.07,2.45h-0.01c-0.83,0.41-1.67,0.83-2.5,1.26
					c-1.72,0.88-3.45,1.78-5.17,2.72c-0.69,0.37-1.38,0.75-2.07,1.14c-0.16,0.08-0.32,0.17-0.48,0.27
					c-0.69,0.38-1.39,0.77-2.08,1.17c-1.71,0.98-3.41,1.98-5.1,3.01c-0.61,0.37-1.22,0.75-1.83,1.13c-0.31,0.19-0.61,0.38-0.92,0.57
					c-0.49,0.31-0.99,0.63-1.48,0.95c-0.78,0.49-1.56,0.99-2.33,1.51c-0.93,0.61-1.86,1.24-2.79,1.87c-0.14,0.1-0.28,0.19-0.41,0.28
					c-0.97,0.67-1.94,1.35-2.91,2.04c-1.01,0.72-2.01,1.45-3.01,2.19c-0.95,0.7-1.89,1.41-2.82,2.13c-1.05,0.81-2.09,1.63-3.13,2.46
					c-10.21,8.2-19.84,17.64-28.4,28.54c-0.03,0.04-0.06,0.07-0.09,0.11c-25.97,33.08-49.11,85.37-54.24,142.82
					c0,0-2.68,5-6.83,13.3c-11.54,23.05-34.51,71.5-43.46,109.01v0.01c-0.09,0.39-0.18,0.77-0.27,1.16
					c-0.17,0.71-0.32,1.4-0.47,2.08c-0.44,1.98-0.84,3.93-1.18,5.82c-0.13,0.7-0.25,1.38-0.36,2.06c-0.1,0.57-0.19,1.15-0.27,1.71
					c-0.06,0.36-0.11,0.72-0.17,1.08c-0.09,0.69-0.19,1.38-0.27,2.05c-0.59,4.71-0.82,9.09-0.63,13.04c0,0.12,0,0.24,0.01,0.36
					c0.01,0.22,0.02,0.43,0.04,0.64c0.02,0.28,0.04,0.57,0.06,0.85c0,0,0.01,0.13,0.03,0.39c0.01,0.1,0.02,0.22,0.03,0.35
					c0.02,0.27,0.05,0.62,0.08,1.03c0.02,0.26,0.05,0.55,0.07,0.86c0.16,2.02,0.4,5.15,0.69,9.18c0.07,0.93,0.14,1.91,0.22,2.93
					c0.02,0.35,0.05,0.7,0.07,1.05c0.03,0.35,0.05,0.71,0.08,1.07c0.08,1.09,0.16,2.22,0.24,3.39c0.12,1.69,0.24,3.46,0.37,5.31
					c0.06,0.9,0.13,1.81,0.19,2.75c0.58,8.57,1.21,18.63,1.83,29.54c0.12,2.01,0.23,4.05,0.34,6.12c0.09,1.58,0.17,3.18,0.26,4.79
					c0.06,1.09,0.11,2.18,0.17,3.28c0.13,2.65,0.26,5.34,0.39,8.05c0.04,0.77,0.08,1.53,0.11,2.3c0.11,2.3,0.21,4.62,0.31,6.95
					c0.14,3.11,0.26,6.23,0.38,9.36c0.65,17.47,1.06,35.12,0.95,50.94c0,0.46,0,0.92-0.01,1.38c0,0.82-0.01,1.64-0.02,2.45
					c-0.02,1.28-0.04,2.54-0.06,3.79c-0.03,1.6-0.06,3.16-0.11,4.71c-0.03,1.37-0.08,2.72-0.12,4.05c-0.07,1.78-0.14,3.52-0.22,5.22
					c-0.04,0.82-0.08,1.63-0.13,2.43c0,0.05-0.01,0.1,0,0.15c-0.05,0.8-0.1,1.59-0.15,2.37c-0.04,0.58-0.08,1.15-0.12,1.71
					c-0.04,0.56-0.08,1.12-0.12,1.67c-0.18,2.34-0.39,4.57-0.62,6.66c0.47-1.18,0.94-2.39,1.4-3.61c1.9-20.9,1.53-52.55,0.35-83.66
					c-0.12-3.13-0.24-6.25-0.38-9.36c-1.99-46.6-5.48-89.34-5.48-89.34c-0.37-4.42-0.16-9.43,0.52-14.89
					c0.34-2.74,0.81-5.59,1.38-8.53c13.78-50.9,69.34-128.54,69.34-128.54c-4.54-45.88,2.25-82.48,15.8-111.68
					c0.02-0.03,0.03-0.06,0.04-0.09c6.54-12.07,13.64-22.92,20.97-32.26c0.03-0.04,0.06-0.07,0.09-0.11
					c8.56-10.9,18.18-20.34,28.39-28.54c12.41-9.97,25.7-18.09,39.03-24.7h0.01c54.09-26.85,108.87-28.89,108.87-28.89
					c10.01-6.44,20.36-11.75,30.98-16.03c1.96-0.81,3.92-1.56,5.9-2.29c1.44-0.52,2.89-1.03,4.34-1.52c2.03-0.7,4.07-1.35,6.11-1.97
					c2.02-0.61,4.04-1.19,6.08-1.74c1.72-0.46,3.45-0.9,5.19-1.32c1.93-0.47,3.87-0.9,5.82-1.31c1.61-0.34,3.23-0.66,4.86-0.97
					c1.98-0.37,3.98-0.71,5.98-1.02c12.23-1.92,24.66-2.81,37.17-2.81h0.01c14.09,0,28.28,1.13,42.45,3.17
					c1.12,0.16,2.24,0.32,3.35,0.5c1.19,0.18,2.38,0.37,3.57,0.56c1.5,0.25,3.01,0.51,4.51,0.78c1.51,0.26,3.01,0.54,4.51,0.83
					c1.21,0.23,2.42,0.47,3.64,0.72c1.36,0.27,2.72,0.55,4.07,0.84c0.81,0.17,1.63,0.34,2.44,0.52c1.62,0.36,3.24,0.72,4.86,1.1
					c0.71,0.16,1.42,0.33,2.12,0.5c0.92,0.22,1.83,0.44,2.74,0.66c-2.4-0.61-4.81-1.18-7.23-1.73
					C1065.39,380.62,1065.34,380.6,1065.29,380.6z M928.99,732.84c-0.37,0.82-0.9,1.63-1.61,2.42c-0.52-0.04-1.05-0.09-1.57-0.13
					c0.24-2.16,0.47-4.31,0.71-6.46c-1-1.71-1.95-3.33-2.88-4.86c1.25,4.15,1.18,8.33-2.23,12.61c-1.3,0.18-2.8,0.08-3.85,0.57
					c-10.63,4.98-22.28,5.27-33.94,4.21c-20.19-1.85-37.92-12.69-58.03-15.1c-33.82-4.06,21.51-23.48-12.59-20.96
					c-21.14,1.56-77.22,20.67-93.24,31.9c-8.39,5.89-16.16-5.37-24.34,0.72c-0.34,0.27-0.71,0.63-1.11,1.05
					c-0.11,1.81-0.27,3.61-0.5,5.41c-0.51,4.02-1.64,7.71-3.26,11.1c21.27-17.21,60.26-37.23,119-24.74c0,0,77.86,18.25,94.46,30.38
					c0,0,21.22-11.32,25.82-26.73c-0.09-0.16-0.18-0.31-0.28-0.47C929.36,733.45,929.17,733.14,928.99,732.84z M920.12,718.36
					c1.2,1.69,2.35,3.51,3.52,5.45c-0.81-2.68-2.16-5.34-3.52-8.01V718.36z M896.85,702.45c-18.99-5.67-38.77-8.78-58.9-9.5
					c-25.53-0.92-51.14-0.78-76.71-1.1c-2.46,0.3-4.92,0.68-7.4,0.87c-6.33,0.48-12.72,0.64-19.01,1.37
					c-8.13,0.93-16.13,2.39-23.01,6.31c1.79-0.28,3.61-0.48,5.36-0.87c17.68-4.05,35.8-5.9,54.1-6.55
					c35.58-1.27,70.79,1.58,105.53,7.55c8.81,1.51,17.27,4.69,25.52,7.75c7.33,2.72,13.56,6.78,16.31,13.31
					c0.08,0.2,0.72,0.26,1.48,0.5v-3.73C915.1,711.22,909.19,706.14,896.85,702.45z M695.81,708.86
					c-12.27,14.49-23.57,36-24.86,66.62l1.68-3.35l10.23-20.46c-0.17,0.97,6.32-9.01,6.79-7.62c1.37-1.01,3.14-3.6,4.66-5.24
					c0.21-3.31,0.26-6.65,0.33-9.96C694.78,722.16,695.15,715.49,695.81,708.86z M670.94,775.63c0,0,0.07-0.11,0.21-0.31
					c0.01-0.01,0.01-0.01,0.01-0.02c-0.06,0.06-0.14,0.13-0.21,0.19C670.94,775.54,670.94,775.58,670.94,775.63z"/>
			</g>
		</g>
		<g>
			<g>
				<path class="st18" d="M1359.87,794.09l-4-12.68c0.13,1.1-0.14,2.23-0.27,3.94c-0.01-0.01-0.01-0.02-0.02-0.03
					c-49.06-78.02-187.34-17.31-215.89-53.01c-0.53,0.3-1.05,0.59-2.39,1.35l-1.41-15.36c-0.18,0.12-0.37,0.24-0.55,0.38
					c-0.14,0.09-0.28,0.19-0.43,0.29c-20.22,14.02-21.52,38.15,2.03,50.96c7.91,4.29,17.34-5.11,29.79-9.11
					c65.04-20.91,144.61-19.62,191.41,36.89c1.65,1.99,3.26,4.04,4.82,6.17L1359.87,794.09z"/>
			</g>
		</g>
		<g>
			<g>
				<path class="st19" d="M694.31,738.81c-0.11,1.81-0.27,3.61-0.5,5.41c-0.51,4.02-1.64,7.71-3.26,11.1
					c-2.87,5.99-7.3,11.06-12.73,15.47c-0.98,0.8-1.97,1.57-2.98,2.32c-0.13,0.11-0.26,0.21-0.39,0.3c0,0,0,0.01-0.01,0.01
					c-0.31,0.03-0.59,0.08-0.83,0.15c-0.51,0.14-0.89,0.37-1.26,0.66c-0.12,0.09-0.23,0.19-0.35,0.3c-0.24,0.22-0.51,0.47-0.82,0.75
					c-0.01,0.01-0.01,0.01-0.02,0.02c-0.06,0.06-0.14,0.13-0.21,0.19v-0.01l1.68-3.35l10.23-20.46c-0.17,0.97,6.32-9.01,6.79-7.62
					C691.02,743.04,692.79,740.45,694.31,738.81z"/>
			</g>
		</g>
		<g>
			<g>
				<path class="st3" d="M1395.11,706.01c-1.2-3.56-2.54-6.94-3.97-10.05c-0.45-3.12-2.33-15.45-6.14-33.14
					c-5-23.22-11.08-45.33-18.05-65.7c-13.41-39.2-29.54-70.23-47.94-92.24l-0.14-0.17l-0.04-0.03c-1.99-2.4-4.11-4.78-6.31-7.09
					l-0.25-0.26l-0.28-0.22c-0.27-0.22-27.9-21.88-70.08-47.1c-38.96-23.3-98.73-54.54-162.24-71.05l-0.5-0.13
					c-0.77-0.2-1.53-0.4-2.31-0.6c-0.53-0.13-1.09-0.27-1.65-0.41c-0.44-0.11-0.87-0.22-1.31-0.33
					c-27.96-6.85-54.7-10.32-79.49-10.32v4.75l-0.01-4.75c-43.11,0-81.46,10.44-114.01,31.05c-9.04,0.5-58.51,4.31-108.46,28.81
					l-1.07,0.52c-14.68,7.29-28.12,15.8-39.94,25.29c-11.03,8.85-20.84,18.72-29.17,29.31c-0.05,0.06-0.1,0.12-0.15,0.19
					c-7.63,9.73-14.83,20.81-21.4,32.93l-0.21,0.39l-0.02,0.04c-18.1,33.58-29.99,72.96-33.54,111.06
					c-4.66,8.81-38.68,74.05-50.27,122.62c-0.63,2.65-1.19,5.21-1.66,7.63c-0.6,3.07-1.08,6.06-1.43,8.87
					c-0.74,5.97-0.93,11.33-0.54,15.93c0.03,0.42,3.51,43.17,5.47,89.13c0.14,3.12,0.26,6.23,0.38,9.35c1.3,34.45,1.3,60.96,0,78.91
					c-0.11,1.42-0.22,2.79-0.34,4.1c-0.1,1.23-0.22,2.45-0.37,3.76l-0.03,0.28v0.01c-0.13,1.19-0.28,2.32-0.44,3.39
					c-0.42,3.06-0.91,5.66-1.45,7.73l-0.3,1.15l0.24,1.16l3.1,14.63l18.49,87.39l3.8,17.95l1.35,6.39l2.34,11.06l10.13,47.84
					l0.01,0.07l0.02,0.06l2.24,9.33v0.01l1.26,5.27l32.63,136.07c0.2,0.83,4.98,20.15,18.96,47.02c5.01,9.61,11.6,20.92,20.08,33
					h0.01c0.92,1.33,1.87,2.66,2.86,4.01c0.01,0.03,0.03,0.05,0.05,0.08c12.64,17.39,29.12,36.1,50.22,53.4
					c0.58,0.49,1.17,0.96,1.76,1.44c1.33,1.07,2.68,2.14,4.05,3.2c0.94,0.73,1.88,1.45,2.83,2.17c0.21,0.16,0.41,0.31,0.62,0.47
					c1.45,1.57,7.27,7.78,16.37,16.31c0.02,0.02,0.05,0.04,0.07,0.06c1.2,1.13,2.45,2.29,3.76,3.49
					c8.27,7.55,18.69,16.49,30.65,25.49c17.67,13.31,34.99,23.92,51.49,31.55c20.88,9.65,40.55,14.55,58.44,14.55
					c1.92,0,3.85-0.06,5.75-0.17c6.61,2.01,45.88,13.27,95.2,13.27c28.92,0,55.73-3.93,79.69-11.69c0.81-0.26,1.62-0.53,2.42-0.8
					c0.31-0.1,0.63-0.21,0.94-0.32c1.29-0.43,2.57-0.89,3.84-1.35c0.8-0.29,1.58-0.58,2.37-0.88l0.32-0.13
					c0.07-0.02,0.13-0.04,0.2-0.07c11.33-4.33,22.09-9.63,31.97-15.74l0.48-0.3l0.4-0.4l63.97-62.99l16.25-16l1.48-1.45l0.8-0.78
					v-0.01l1.18-1.16l2.69-2.64v-0.01l0.01-0.01l0.8-0.78l12.76-12.56l0.03-0.03l0.02-0.02c0.35-0.35,4.2-4.28,10.18-11.82
					c0.31-0.38,0.62-0.77,0.93-1.17c2.16-2.76,4.58-5.96,7.2-9.61c0,0,0,0,0-0.01c0.02-0.02,0.03-0.04,0.04-0.06
					c0.96-1.34,1.95-2.74,2.96-4.2c5.58-8.07,11.86-17.96,18.36-29.68c11.99-21.65,22.21-45.07,30.37-69.63
					c10.13-30.52,17.1-62.89,20.7-96.21l2.63-8.16l1.36-4.24l0.19-0.6l19.49-60.64l0.48-1.49l2.17-6.77l1.01-3.15l6.5-20.19
					l0.61-1.89l0.11-0.33l0.06-0.34l0.08-0.44c0.08-0.41,0.2-1.06,0.36-1.93c0.66-3.53,2.02-11.02,3.69-21.42
					c3.64-22.89,6.57-46.06,8.46-67.01l0.02-0.23v-0.04c0.31-3.42,0.61-7,0.91-10.95l0.01-0.19v-0.01c0.15-1.99,0.28-3.9,0.41-5.74
					c0.21-3.12,0.39-6.03,0.55-8.81c0.15-2.72,0.28-5.4,0.39-8.05c0.66-15.83,0.64-30.34-0.05-43.23l-0.03-0.55l-0.03-0.53
					c-0.02-0.38-0.04-0.76-0.07-1.14c-0.11-1.87-0.24-3.75-0.39-5.64c-0.09-1.14-0.19-2.28-0.29-3.43c-0.1-1.01-0.2-2.02-0.3-3.02
					l2.53-37.31l0.26-3.84l0.88-12.88l5.01-73.92C1404.73,793.39,1407.5,742.78,1395.11,706.01z M1399.6,795.23l-5.02,73.92
					l-0.87,12.88l-0.27,3.84v0.01l-2.55,37.73c0.34,3.27,0.63,6.62,0.85,10.03c0.06,0.77,0.11,1.55,0.15,2.33
					c0.03,0.35,0.05,0.7,0.07,1.06c0.02,0.36,0.04,0.71,0.06,1.08c0.84,15.62,0.62,32.39-0.25,49.05c-0.03,0.56-0.06,1.11-0.09,1.67
					c-0.25,4.51-0.55,8.99-0.88,13.44c-0.03,0.4-0.06,0.8-0.09,1.2v0.01c-0.28,3.7-0.58,7.36-0.91,10.99c0,0.04-0.01,0.09-0.01,0.15
					c-0.3,3.32-0.61,6.6-0.94,9.84c-2.27,22.17-5.16,42.27-7.48,56.84c-1.64,10.2-2.99,17.69-3.66,21.3
					c-0.16,0.86-0.28,1.5-0.36,1.9c-0.01,0.07-0.02,0.13-0.03,0.18c-0.04,0.21-0.06,0.32-0.06,0.32l-0.62,1.9l-7.43,23.12
					l-0.07,0.23l-2.55,7.96l-0.1,0.3l-19.69,61.23v0.01l-4.14,12.88c-10.11,94.29-44.72,158.8-67.78,192.48
					c-12.5,18.23-21.6,27.43-21.6,27.43l-9.76,9.61l-5.47,5.39l-1.03,1.01l-19.71,19.4l-63.97,62.99
					c-10.06,6.22-20.52,11.27-31.15,15.33h-0.01c-0.03,0.02-0.08,0.03-0.11,0.04c-3.22,1.24-6.45,2.37-9.7,3.42
					c-1.02,0.33-2.03,0.65-3.05,0.96c-2.11,0.65-4.22,1.26-6.33,1.83c-1.01,0.28-2.01,0.55-3.02,0.81
					c-1.46,0.38-2.92,0.74-4.38,1.08c-1.21,0.29-2.41,0.56-3.62,0.83c-3.14,0.69-6.27,1.31-9.4,1.86
					c-10.75,1.91-21.43,3.05-31.83,3.62c-1.6,0.09-3.19,0.17-4.77,0.23c-3.96,0.15-7.88,0.22-11.74,0.22
					c-36.94,0-68.49-6.52-84.11-10.44c-0.17-0.04-0.33-0.08-0.49-0.12c-0.47-0.11-0.92-0.23-1.35-0.34
					c-0.15-0.04-0.29-0.08-0.44-0.11c-0.3-0.08-0.58-0.16-0.86-0.23c-4.74-1.25-7.35-2.08-7.35-2.08c-0.05,0-0.09,0.01-0.14,0.01
					c-2.06,0.14-4.14,0.21-6.21,0.21c-9.15,0-18.41-1.33-27.61-3.68c-0.32-0.08-0.64-0.16-0.95-0.24
					c-42.67-11.21-83.97-43.92-107.87-65.68c-1.31-1.19-2.56-2.35-3.76-3.47c-0.02-0.02-0.05-0.04-0.07-0.07
					c-0.48-0.45-0.96-0.89-1.42-1.33l-0.01-0.01c-9.92-9.33-15.71-15.69-15.71-15.69c-2.64-1.98-5.22-3.98-7.73-6.01
					c-0.13-0.11-0.27-0.22-0.4-0.32c-2.47-2-4.88-4.02-7.22-6.06c-17.79-15.43-32.09-31.79-43.49-47.5
					c-0.02-0.03-0.04-0.05-0.06-0.07c-0.97-1.34-1.92-2.68-2.85-4.01c-29.36-41.95-38.19-78.25-38.19-78.25L639.81,1165l-6.64-31.38
					l-3.49-16.46L600.6,979.74c0.85-3.23,1.52-7.32,2.06-12.11v-0.01c0.14-1.24,0.27-2.54,0.38-3.87c1.9-20.9,1.53-52.55,0.35-83.66
					c-0.12-3.13-0.24-6.25-0.38-9.36c-1.99-46.6-5.48-89.34-5.48-89.34c-0.37-4.42-0.16-9.43,0.52-14.89
					c0.34-2.74,0.81-5.59,1.38-8.53c0.47-2.42,1.01-4.9,1.61-7.43c12.18-51.02,50.3-122.31,50.3-122.31
					c3.68-41.22,16.62-79.77,33.23-110.48c0.02-0.03,0.03-0.06,0.04-0.09c6.54-12.07,13.64-22.92,20.97-32.26
					c0.03-0.04,0.06-0.07,0.09-0.11c8.56-10.9,18.18-20.34,28.39-28.54c12.41-9.97,25.7-18.09,39.03-24.7h0.01
					c54.09-26.85,108.87-28.89,108.87-28.89c10.01-6.44,20.36-11.75,30.98-16.03c1.96-0.81,3.92-1.56,5.9-2.29
					c1.44-0.52,2.89-1.03,4.34-1.52c2.03-0.7,4.07-1.35,6.11-1.97c2.02-0.61,4.04-1.19,6.08-1.74c1.72-0.46,3.45-0.9,5.19-1.32
					c1.93-0.47,3.87-0.9,5.82-1.31c1.61-0.34,3.23-0.66,4.86-0.97c1.98-0.37,3.98-0.71,5.98-1.02c12.23-1.92,24.66-2.81,37.17-2.81
					h0.01c14.09,0,28.28,1.13,42.45,3.17c1.12,0.16,2.24,0.32,3.35,0.5c1.19,0.18,2.38,0.37,3.57,0.56c1.5,0.25,3.01,0.51,4.51,0.78
					c1.51,0.26,3.01,0.54,4.51,0.83c1.21,0.23,2.42,0.47,3.64,0.72c1.36,0.27,2.72,0.55,4.07,0.84c0.81,0.17,1.63,0.34,2.44,0.52
					c1.62,0.36,3.24,0.72,4.86,1.1c0.71,0.16,1.42,0.33,2.12,0.5c0.92,0.22,1.83,0.44,2.74,0.66c1,0.25,1.99,0.49,2.98,0.74
					c0.92,0.23,1.83,0.47,2.76,0.71c121.83,31.69,230.48,117.24,230.48,117.24c2.13,2.25,4.21,4.58,6.23,7.01l0.04,0.04
					c20.75,24.82,36.06,58.54,47.04,90.65c8.25,24.1,14.05,47.29,17.9,65.13c4.34,20.2,6.18,33.53,6.18,33.53
					c1.51,3.21,2.87,6.63,4.07,10.2C1402.58,743.89,1399.6,795.23,1399.6,795.23z"/>
				<path class="st18" d="M1399.6,795.23l-5.02,73.92l-0.87,12.88l-0.27,3.84c-0.02-2.22-0.3-4.53-0.57-6.86
					c-0.35-2.92-0.69-5.86-0.56-8.65c0.25-5.42-1.36-10.29-5.41-14.65c-1.52-2.64-2.98-5.3-4.58-7.92
					c-8.17-13.46-15.5-27.18-21.07-41.48c-1.11-2.85-2.19-5.71-3.11-8.6c1.65,1.99,3.26,4.04,4.82,6.17l-3.09-9.79
					c3.73,4.9,7.2,10.24,10.39,16.07c0,0,0-37.16-20.61-69.4c-1.31-11.66-4.28-23-9.68-33.92c-0.6-1.2-1.23-2.39-1.91-3.53
					c-1.25-2.97-1.9-5.37-2.1-7.31v-0.09l-0.07-1.32l-4.56-94.56l0.35,0.3c-0.7-11.09-1.2-14.18,1.51-28.17
					c1.07-5.58,2.21-11.18,2.53-16.8c0.72-12.32-5.49-22.72-15.41-31.82c-20.82-19.07-46.75-31.86-77.07-38.99
					c-12.34-2.9-23.05-7.91-32.61-14.57c-8.25-5.75-16.3-11.68-24.44-17.54c-10.21-6.99-20.63-13.72-34.02-16.58
					c-8.24-3.21-17-4.35-26.09-4.23c-7.11-1.33-14.27-2.49-21.31-4.02c-23.59-5.11-47.15-10.34-70.72-15.53
					c-14.1-3.1-28.16-6.33-42.32-9.26c-19.89-4.12-40.08-5.27-60.49-2.87c-12.17,1.13-24.42,1.86-36.48,3.47
					c-15.87,2.13-17.47,1.49-32.65,6.09c-2.16,1.33-18.66,5.29-20.9,6.53c-6.93,3.87,6.1,12.78-0.42,17.03
					c-8.99,5.86-22.5,20.37-30.6,26.98c-9.63,7.86-26.27-1.65-25.71,14.29c0,0-12.56,90.23-38.33,109.6
					c-52.04,22.62-41.42,85.56-42.16,87.64c-0.01,0.01-0.01,0.02-0.01,0.02c-1.97,3.96-3.39,8.26-4.4,12.89
					c-1.74,8.06-2.97,16.19-3.77,24.37c-12.27,14.49-23.57,36-24.86,66.62v0.01c-0.01,0.05-0.01,0.09-0.01,0.14
					c0,0,0.07-0.11,0.21-0.31c0.01-0.01,0.01-0.01,0.01-0.02c0.01-0.01,0.01-0.01,0.02-0.02c0.31-0.28,0.58-0.53,0.82-0.75
					c0.12-0.11,0.23-0.21,0.35-0.3c0.37-0.29,0.75-0.52,1.26-0.66c0.24-0.07,0.52-0.12,0.83-0.15c0.01,0,0.01-0.01,0.01-0.01h0.04
					c0.12-0.02,0.25-0.02,0.38-0.03c0.18-0.01,0.36-0.01,0.57-0.01c-0.21-0.09-0.41-0.17-0.6-0.26c1.01-0.75,2-1.52,2.98-2.32
					c5.43-4.41,9.86-9.48,12.73-15.47c21.27-17.21,60.26-37.23,119-24.74c0,0,77.86,18.25,94.46,30.38c0,0,21.22-11.32,25.82-26.73
					c3.74,6.37,4.08,11.8-1.55,17.3c-2.84,2.77-6.44,5.17-10.11,7.26c-4.27,2.42-10.55,10.16-15.69,8.84
					c-5.86-1.51-9.22-4.99-15.07-6.54c-33.45-11.05-55.95-21.43-92.04-20.08c-4.1,0.02-8.23-0.16-12.31,0.09
					c-23.75,1.49-32.79,1.33-55.75,5.88c5.42-0.95-2.81,0.92-9.39,3.77c-8.07,3.49-15.97,7.38-21.26,13.47l-0.01,0.01
					c-0.04,0.05-0.09,0.1-0.14,0.15c-0.2,0.21-0.58,0.62-1.12,1.21c0-0.47-12.96,2.94-15.1,10.04c-8.34,9.03-36.95,6.71-39.62,41.67
					c0,0-17.09,92.75-37.63,146.45c1.9-20.9,1.53-52.55,0.35-83.66c-0.12-3.13-0.24-6.25-0.38-9.36
					c-1.99-46.6-5.48-89.34-5.48-89.34c-0.37-4.42-0.16-9.43,0.52-14.89c0.34-2.74,0.81-5.59,1.38-8.53
					c13.78-50.9,69.34-128.54,69.34-128.54c-4.54-45.88,2.25-82.48,15.8-111.68c0.02-0.03,0.03-0.06,0.04-0.09
					c6.54-12.07,13.64-22.92,20.97-32.26c0.03-0.04,0.06-0.07,0.09-0.11c8.56-10.9,18.18-20.34,28.39-28.54
					c12.41-9.97,25.7-18.09,39.03-24.7h0.01c54.09-26.85,108.87-28.89,108.87-28.89c10.01-6.44,20.36-11.75,30.98-16.03
					c1.96-0.81,3.92-1.56,5.9-2.29c1.44-0.52,2.89-1.03,4.34-1.52c2.03-0.7,4.06-1.35,6.11-1.97c2.02-0.61,4.05-1.19,6.08-1.74
					c1.72-0.46,3.45-0.9,5.19-1.32c1.93-0.47,3.87-0.9,5.82-1.31c1.61-0.34,3.23-0.66,4.86-0.97c1.99-0.37,3.98-0.71,5.98-1.02
					c12.23-1.92,24.66-2.81,37.17-2.81h0.01c14.09,0,28.28,1.13,42.45,3.17c1.12,0.16,2.24,0.33,3.35,0.5
					c1.19,0.18,2.38,0.37,3.57,0.56c1.5,0.25,3.01,0.51,4.51,0.78c1.51,0.26,3.01,0.54,4.51,0.83c1.21,0.23,2.42,0.47,3.64,0.72
					c1.36,0.27,2.71,0.55,4.07,0.84c0.81,0.17,1.63,0.34,2.44,0.52c1.62,0.36,3.24,0.72,4.86,1.1c0.71,0.16,1.42,0.33,2.12,0.5
					c0.92,0.22,1.83,0.44,2.74,0.66c1,0.25,1.99,0.49,2.98,0.74c0.92,0.23,1.83,0.47,2.76,0.71
					c121.41,31.91,229.45,116.98,229.45,116.98c2.25,2.37,4.68,4.79,7.26,7.27l0.04,0.04c20.75,24.82,36.06,58.54,47.04,90.65
					c8.25,24.1,14.05,47.29,17.9,65.13c4.34,20.2,6.18,33.53,6.18,33.53c1.51,3.21,2.87,6.63,4.07,10.2
					C1402.58,743.89,1399.6,795.23,1399.6,795.23z"/>
			</g>
		</g>
		<g>
			<g>
				<path class="st18" d="M767.18,1532.26c-0.01,0.04-0.01,0.06-0.01,0.06C766.83,1532.3,767,1532.27,767.18,1532.26z"/>
			</g>
		</g>
		<g>
			<g>
				<path class="st18" d="M1247.39,1555.39c0,0-64.06,109.17-171.7,140.42l-125.56,27.68l7.17,48.18c0,0-27.23-3.89-64.51-10.92
					c-76.25-27.56-107.18-112.34-107.18-112.34c-1.87-13.36-20.04-62.27-18.45-116.08c0.41-0.07,0.21-0.08,0.01-0.06
					c0.2-2.07,5.52-55.66,1.09-78.36c-0.01-0.02-0.01-0.03-0.01-0.03l2.22,3.11c0.76,0.58,2.83,2.68,3.6,3.26
					c0,0,85.33,96.67,162.21,91.29c0,0,127.62,40.24,218.33-15.89l84.57-84.57L1247.39,1555.39z"/>
			</g>
		</g>
		<g class="st20">
			<g>
				<g>
					<path class="st15" d="M1239.19,1451.09c-116.08,247.02-294.33,172.72-294.33,172.72c-103.63-15.26-175.46-167.52-176.58-169.9
						c-0.01-0.02-0.01-0.03-0.01-0.03l2.22,3.11c0.76,0.58,2.83,2.68,3.6,3.26c0,0,85.33,96.67,162.21,91.29
						c0,0,127.62,40.24,218.33-15.89L1239.19,1451.09z"/>
				</g>
			</g>
		</g>
		<g>
			<g>
				<path class="st7" d="M244.69,2124.34l-9.72,0.09h-0.7l-7.77,0.06l-14.05,0.12L0,2124.33v-253.75
					c0.7-8.2,56.61-52.23,56.61-52.23c0.13-0.01,0.27-0.02,0.4,0c5.15,0.16,13.01,12.8,16,12.29c35.36,6.66,35.36,65.09,35.36,65.09
					c4.64,17.09,28.27,52.21,47.94,79.5c15.14,20.99,27.91,37.36,27.91,37.36c0.11,0.11,0.21,0.22,0.32,0.34
					c0.14,0.15,0.29,0.31,0.43,0.48c0.13,0.14,0.25,0.29,0.38,0.44c0.19,0.23,0.39,0.47,0.59,0.72c0.2,0.25,0.4,0.51,0.61,0.78
					c0.42,0.55,0.86,1.13,1.3,1.77c0.22,0.3,0.44,0.61,0.66,0.93c0.71,1.01,1.46,2.13,2.23,3.31c0.2,0.31,0.4,0.62,0.6,0.94
					c0.61,0.95,1.24,1.97,1.89,3.01c0,0,0,0,0.01,0c6.43,10.44,14.43,25.22,22.2,40.19v0.01c0.47,0.9,0.94,1.82,1.42,2.73
					c0.46,0.9,0.93,1.82,1.4,2.72c0.93,1.82,1.86,3.62,2.77,5.42c0.46,0.9,0.91,1.8,1.37,2.69c1.59,3.12,3.13,6.19,4.63,9.17
					c0.36,0.72,0.72,1.45,1.08,2.16c2.47,4.97,4.79,9.65,6.84,13.85c0.17,0.35,0.34,0.7,0.51,1.04c0.43,0.87,0.85,1.73,1.25,2.55
					c0.16,0.33,0.32,0.66,0.48,0.98c0.82,1.69,1.59,3.26,2.29,4.72c0.24,0.49,0.47,0.96,0.69,1.42c0.3,0.62,0.59,1.21,0.86,1.79
					c0.23,0.47,0.45,0.93,0.66,1.37c0.29,0.61,0.56,1.17,0.81,1.71c0.1,0.19,0.19,0.37,0.27,0.55c0.28,0.58,0.53,1.1,0.75,1.57
					c0.12,0.25,0.23,0.48,0.33,0.69c0.12,0.25,0.23,0.47,0.32,0.67c0.18,0.38,0.31,0.66,0.4,0.83c0.04,0.08,0.07,0.14,0.08,0.17
					C244.69,2124.33,244.69,2124.34,244.69,2124.34z"/>
			</g>
		</g>
		<g>
			<g>
				<path class="st21" d="M226.51,2124.49l18.19-0.15c0,0-14.16-29.76-29.24-58.81v-0.01c15.09-0.62,42.05,20.36,42.05,20.36
					c17.14,5.05,64.34,37.9,67.04,38.46l-98.05,0.16V2124.49z"/>
			</g>
		</g>
		<g>
			<g>
				<path class="st21" d="M510.43,2124.34c-16.64-25.11-28.7-32.82-50.48-39.23c-32.02-9.42-64.45-5.12-64.45-5.12
					s-91.87,2.82-108.26-14.48c-16.4-17.3-43.37-23.76-43.37-23.76c-12.88-5.19-49.76-16.22-50.61-16.41c-0.01,0-0.01,0-0.01,0
					c-3.6-5.86-6.72-10.36-9.02-12.74c0,0-12.78-16.37-27.91-37.36c12.96-7.89,84.67,2.12,84.67,2.12
					c61.12,21.53,124.15,3.84,124.15,3.84c73.81-8.84,103.04,36.21,103.04,36.21L510.43,2124.34z"/>
			</g>
		</g>
		<g class="st22">
			<g>
				<path d="M391.28,1822.83l119.16,301.5h21.14C531.57,2124.34,404.34,1866.27,391.28,1822.83z"/>
			</g>
		</g>
		<g>
			<g>
				<path class="st10" d="M590,1646.78c-7.31,19.99-71.88-2.69-71.88-2.69c-123.77-56.11-179.89-5-179.89-5
					c51.77-2.95,81.62,7.43,96.36,15.25c-14.89-4.06-37.94-1.79-37.94-1.79c6.89,1.21,12.32,9.96,14.3,13.56
					c0.01,0.02,0.02,0.03,0.02,0.04c0.17,0.46,0.33,0.91,0.47,1.35c-85.96-45.24-157.52,39.62-157.52,39.62
					c-5.68,3.57-11.3,8.6-16.76,14.61c-1.85,2.03-3.67,4.18-5.48,6.41c-0.01,0,0,0.01,0,0.01c-22.42,27.77-41.58,70.1-50.99,92.8
					c-3.97,9.61-6.21,15.7-6.21,15.7c-2.53,21.7-39.94,58.78-41.1,59.94c27.64-34.88,35.71-61.86,35.71-61.86
					c2.67-10.91,6.62-22.82,11.18-34.79c16.31-42.82,40.36-86.31,40.83-87.18c0.01-0.01,0.01-0.01,0.01-0.01
					c40.18-67.12,145.05-106.12,146.69-106.72c0.01-0.01,0.02-0.01,0.02-0.01c70.73-17.68,157.99,25.36,157.99,25.36
					C536.96,1650.25,590,1646.78,590,1646.78z"/>
			</g>
		</g>
		<g class="st23">
			<g>
				<path class="st5" d="M411.77,1667.67c-0.11-0.06-0.21-0.11-0.32-0.16c-0.14-0.44-0.3-0.89-0.47-1.35
					C411.5,1667.09,411.77,1667.67,411.77,1667.67z"/>
			</g>
		</g>
		<g>
			<g>
				<path class="st10" d="M545.8,1677.92c0,0,36.9,163.87,152.98,196.86C698.78,1874.78,579.62,1773.25,545.8,1677.92z"/>
			</g>
		</g>
		<g>
			<g>
				<path class="st7" d="M853.3,2124.34l-4.89,0.12l-80.75-0.03c0,0,0.39,1.26,0,0c-5.3-16.91-44.4-139.43-70.17-157.26
					c0,0-11.02-1.98-2.82-14.54c0,0,43.57-59.19,47.92-61.76l8.58,9.68l1.99,2.25c0,0,0.03,0.1,0.1,0.3
					C756.23,1911.95,823.98,2113.58,853.3,2124.34z"/>
			</g>
		</g>
		<g>
			<g>
				<path class="st10" d="M2063.1,2001.32v26.65c0,0-56.4,81.02-68.19,96.37h-26.14L2063.1,2001.32z"/>
			</g>
		</g>
		<g class="st24">
			<g>
				<path class="st10" d="M1757.36,1629.49c0,0-31.52,217.09-167.59,494.85L1757.36,1629.49z"/>
			</g>
		</g>
		<g class="st24">
			<g>
				<path class="st10" d="M1445.25,2096.9c0,0,16.14-255.23,100.71-352.09C1545.96,1744.8,1471.39,1942.37,1445.25,2096.9z"/>
			</g>
		</g>
		<g class="st14">
			<g>
				<g>
					<path class="st15" d="M1311.39,891c0,0,4.93-0.94-30.42,10.67l0,0c-2.59,0.77-4.12,1.13-4.12,1.13
						c-104.51,28.66-141.19-19.15-142.05-20.31c50.98,38.27,129.04,17.86,144.38,13.31c0.17-0.05,0.34-0.1,0.49-0.14
						c0.18-0.05,0.41-0.12,0.66-0.21c0.08-0.02,0.15-0.04,0.22-0.07c2.08-0.73,5.47-2.38,2.45-4.59l-32.87-33.11l-3.52-1.77
						C1247.97,856.16,1276.63,864.17,1311.39,891z"/>
				</g>
			</g>
		</g>
		<g class="st24">
			<g>
				<path class="st10" d="M1596.69,1760.95c0,0,46.62-81.54,79.93-93.33c0,0,42.3-13.14,84.07-108.46c0,0-49.2,25.48-82,75.19
					c0,0-8.71,16.91-38.44,30.24c0,0-30.75,1.54-43.56,98.91V1760.95z"/>
			</g>
		</g>
		<g class="st25">
			<g>
				<path class="st11" d="M1976.46,1725.58c0,0,26.14,19.48,0,74.31c0,0-31.26,39.46-34.34,63.55
					C1942.12,1863.45,1964.16,1737.88,1976.46,1725.58z"/>
			</g>
		</g>
		<g>
			<g>
				<path class="st10" d="M2007.73,1964.92c0,0-34.85,141.49-57.91,159.41h-45.61C1904.2,2124.34,1993.89,2007.97,2007.73,1964.92z"
					/>
			</g>
		</g>
		<g>
			<g>
				<path class="st10" d="M1808.87,1739.42l-13.45,384.91h38.44C1833.86,2124.34,1809.64,1950.06,1808.87,1739.42z"/>
			</g>
		</g>
		<g>
			<g>
				<path class="st10" d="M1924.86,1842.53l-39.62,281.81h-48.69C1836.55,2124.34,1880.27,2050.61,1924.86,1842.53z"/>
			</g>
		</g>
		<g>
			<g>
				<path class="st10" d="M1252.29,1934.83l-3.78,189.51h-48.69C1199.82,2124.34,1207.7,2142.91,1252.29,1934.83z"/>
			</g>
		</g>
		<g>
			<g>
				<path class="st10" d="M1343,1611.38c0,0,49.97,228.49-143.18,306.4C1199.82,1917.77,1343,1859.35,1343,1611.38z"/>
			</g>
		</g>
		<g>
			<g>
				<path class="st7" d="M1121.15,1861.4c0,0-2.61,97.94-72.86,108.66c0,0-3.28,9.22-42.59,7.11l-14.41,4.81l-10.19,5.76
					l-29.16,24.22c0,0-2.35,0.94-6.66,2c-21.49,5.28-91.67,13.39-163.4-77.83c-0.09-0.11-0.19-0.21-0.28-0.3
					c-9.53-10.36-19.02-21.36-28.34-32.72c0.1,0.31,0.28,0.85,0.54,1.62c-31.46-37.27-84.98-106.73-137.29-202.95
					c0,0-17.31-17.75,6.72-146.87c0,0,1.15,106.55,66.02,136.83c25.2,30.91,132.57,55.66,203.53,69.03
					c37.28,7.03,64.51,10.92,64.51,10.92S1136.08,1798.87,1121.15,1861.4z"/>
			</g>
		</g>
		<g>
			<g>
				<path class="st7" d="M781.61,1935.81c-1.69-1.72-11.94-12.31-27.8-31.1c-0.26-0.76-0.44-1.3-0.54-1.62
					C762.59,1914.45,772.08,1925.45,781.61,1935.81z"/>
			</g>
		</g>
		<g>
			<g>
				<path class="st26" d="M994.06,1891.65c0,0,7.27,33.05,54.55,25.74c0,0,35.37-5.77,31.52-36.13c0,0-9.14-26.35-43.31-23.58
					C1036.81,1857.69,988.46,1851.25,994.06,1891.65z"/>
			</g>
		</g>
		<g class="st9">
			<g>
				<path d="M976.56,2124.5l-103.34-0.03l-1.86-0.13c-1.54-58.58-110.46-198.54-117.56-219.63c-0.26-0.76-0.44-1.3-0.54-1.62
					c9.32,11.36,18.81,22.36,28.34,32.72c0.09,0.09,0.19,0.19,0.28,0.3c71.72,91.22,141.91,83.11,163.4,77.83
					c3.5-0.37,5.93-1.01,6.66-2C951.95,2011.95,982.71,2102.64,976.56,2124.5z"/>
			</g>
		</g>
		<g>
			<g>
				<path class="st27" d="M971.46,1385.96c0,0,39.69-9.8,75.53,6.15c0,0,4.38,1.22,10.95,0c20.69-3.83,66.43-17.04,93.21-46.89
					c5.64-6.29,21.47-14.33,23.53-22.56c0,0,8.38,3.53-61.77-38.56c-14.97-8.98-34.83-20.48-59-27.8c0,0-32.19,22.32-57.32,1.11
					c0,0-46.82-8.89-88.74,23.61c0,0-10.88,6.84-25.37,10.89c-8.99,2.51-22.07-0.05-26.62,6.12c0,0-1.13,1.5,8.65,8.55
					c0,0,3.2,3.4,5.09,5.57c1.95,2.25,5.23,5.57,5.24,5.57C899.82,1343.1,941.39,1394.01,971.46,1385.96L971.46,1385.96z"/>
			</g>
		</g>
		<g>
			<g>
				<path class="st28" d="M855.86,1298.03c0,0,20.09,10.53,48.91,17.46c19.24,4.62,36.41,2.3,55.74,4.55
					c17.18,2,36.75,8.88,50.37,7.95c0,0,37.75-6.43,79.84-6.82c10.98-0.1,62.4,11.4,77.35,7.61c-1-0.58-57.46-1.06-86.29-16.24
					c0,0-45.55,19.41-68.42,2.88c0,0-24.41,12.66-55.29-0.96C958.07,1314.47,894.59,1313.89,855.86,1298.03z"/>
			</g>
		</g>
		<g>
			<g>
				<path class="st29" d="M1050.45,1391.45"/>
			</g>
		</g>
		<g>
			<g>
				<path class="st30" d="M961.14,1428.59c0,0,56.55-24.63,107.38-1.33C1068.52,1427.26,1017.81,1379.63,961.14,1428.59z"/>
			</g>
		</g>
		<g class="st14">
			<g>
				<g>
					<path class="st15" d="M1138.68,1163.04c-11.76,5.27-23.82,5.48-34.72,3.37c-4.5-0.86-8.78-2.13-12.78-3.59
						c-3.82-1.4-7.37-2.98-10.55-4.58c-0.02-0.01-0.04-0.02-0.06-0.03c-0.77-0.48-1.64-0.92-2.57-1.33
						c-8.67-4.64-14.09-9.02-14.09-9.02c-3.5,1.98-6.95,3.4-10.29,4.38c-11.82,3.43-22.46,1.21-30.39-1.69
						c-0.01,0-0.02-0.01-0.03-0.01c-4.63-1.7-8.32-3.62-10.8-4.8c-1.95-0.92-4.16,0.88-4.28,1l-0.93,0.76
						c-5.61,4.06-10.78,7.05-15.42,9.23c-6.41,2.2-11.24,4.14-11.58,4.28h-0.01c-0.01,0.01-0.01,0.01-0.01,0.01
						c-3.91,1.02-7.04,1.41-9.22,1.52c-2.4,0.12-3.68-0.07-3.68-0.07c-14.12,0.84-23.68-2.6-29.97-8.53
						c-0.09-0.09-0.13-0.14-0.13-0.14c-3.17-3.03-5.5-6.69-7.16-10.77c-0.19-0.43-0.35-0.86-0.52-1.3
						c-9.32-25.39,5.58-64.94,5.58-64.94c6.5,17.86,28.73,19.28,28.73,19.28c1.85,0.14,3.88,0.22,5.17-0.34
						c16.27-7.07,15.81-19.85,15.82-24.74c0.01-1.33,1.33-2.89,1.33-2.89c8.04-8.98,19.61,17.49,19.61,17.49
						c19.38,23.56,46.84,15.38,46.84,15.38c23.83-7.9,24.47-23.71,24.47-23.71c0.25-3.01,2.98-7.05,5.12-9.28
						c12.5-13.08,45.75,0.89,45.75,0.89c18.4,8.29,21.2,23.88,21.37,31.66c0.06,2.86-0.23,4.67-0.23,4.67
						c-0.07,0.66-0.04,0.96,0.09,1.39c2.52,7.78,8.19,7.88,10.8-0.8c2.04-6.78,0.66-13.76-0.86-18.44c0-0.01,0-0.02-0.01-0.03
						c-0.91-1.72-1.52-3.25-2.87-5.27c2.81,2.74,9.35,14.36,9.77,16.31c0.08,0.36,0.15,0.71,0.21,1.06
						C1172.24,1130.59,1151.42,1157.33,1138.68,1163.04z"/>
				</g>
			</g>
		</g>
		<g>
			<g>
				<path class="st13" d="M1072.3,1149.93c-0.88-0.44-1.75-0.89-2.57-1.33C1070.66,1149,1071.53,1149.45,1072.3,1149.93z"/>
			</g>
		</g>
		<g>
			<g>
				<path class="st31" d="M971.91,1152.73h0.01c-0.01,0.01-0.01,0.01-0.02,0.01C971.9,1152.74,971.9,1152.74,971.91,1152.73z"/>
			</g>
		</g>
		<g>
			<g>
				<path class="st31" d="M983.51,1148.45c-4.38,2.06-8.26,3.4-11.58,4.28C972.27,1152.59,977.09,1150.65,983.51,1148.45z"/>
			</g>
		</g>
		<g class="st32">
			<g>
				<path class="st33" d="M1087.44,1020.76c0,0,22.82,11.28,18.48,25.26c0,0-20.48,10.56-21.02-7.62
					C1084.9,1038.4,1093.21,1024.03,1087.44,1020.76z"/>
			</g>
		</g>
		<g>
			<g>
				<path class="st15" d="M955.89,1116.44c0,0,8.38-21.53,35.61-11.48c0,0,24.61,8.25,0,15.07
					C991.49,1120.03,954.84,1127.57,955.89,1116.44z"/>
			</g>
		</g>
		<g>
			<g>
				<path class="st15" d="M1069.82,1122.42c0,0,23.48-0.7,26.66,8.45c0,0,23.88,5.97,24.67-11.14c0,0-19.1-22.24-45.76-8.53
					C1075.39,1111.2,1062.26,1113.97,1069.82,1122.42z"/>
			</g>
		</g>
		<g class="st14">
			<g>
				<g>
					<path class="st15" d="M945.47,1053.16c0,0,66.37-102.96,42.86-171.89c0,0-28.92,24.59-25,69.33
						C963.33,950.6,969.03,1001.27,945.47,1053.16z"/>
				</g>
			</g>
		</g>
		<g>
			<g>
				<path class="st15" d="M1157.95,1150.59c0,0-18.59,27.74-55.37,16.19c10.9,2.11,22.95,1.9,34.72-3.37
					c12.74-5.71,33.55-32.45,27.5-63.63c-0.06-0.35-0.13-0.7-0.21-1.06c-0.41-1.95-6.37-13.86-9.18-16.6v-0.01
					C1156.18,1082.66,1187.94,1104.97,1157.95,1150.59z"/>
			</g>
		</g>
		<g>
			<g>
				<path class="st18" d="M1381.35,1081.04c-2.35,14.64-4.12,23.71-4.12,23.71l-34.6,107.62
					c-15.58,145.34-89.38,219.91-89.38,219.91l-16.26,16.01l-19.71,19.4c27.95-33.11,103.23-116.51,103.23-258.54
					c0,0,4.75-23.97,7.69-32.35C1336.08,1154.35,1351.33,1126.02,1381.35,1081.04z"/>
			</g>
		</g>
		<g>
			<g>
				<path class="st18" d="M1121.15,1546.01c-0.03,0.02-0.07,0.03-0.1,0.04c-3.35,1.18-6.58,2.33-9.71,3.41
					c-82.78,26.8-172.74-1.88-172.74-1.88c-76.88,5.38-163.75-89.95-163.75-89.95c-2.45-1.84-4.85-3.69-7.18-5.57
					c-0.19-0.15-0.37-0.29-0.55-0.44c-40.68-32.81-64.58-71.02-77.8-98.6c-10.68-22.26-14.41-37.61-14.41-37.61l-36.13-150.68
					l-10.13-47.84c27.9,105.76,75.47,239.64,143.63,276.56c0,0,3.21,9.25,13.92,26.62c10.7,17.36,28.9,42.85,58.85,75.3
					C845.06,1495.38,925.06,1576.03,1121.15,1546.01z"/>
			</g>
		</g>
		<g class="st32">
			<g>
				<path class="st33" d="M1155.8,1189.15c0,0,66.84-29.31,71.34-77.76c0,0,66.19,68.73,52.05,140.6
					C1279.19,1251.99,1177.01,1222.14,1155.8,1189.15z"/>
			</g>
		</g>
		<g class="st14">
			<g>
				<g>
					<path class="st15" d="M871.93,901.15c-67.65,29.62-146.83-11.18-146.83-11.18v-0.01c-6.71,1.76-13.65,4.2-19.69,7.58
						c0,0,3.39-28.38,36.89-50.48c0,0,92.77-42.44,149.12-8.83c0,0,24.77,19.3,19.76,26.73c0,0-30.78,23.36-75.3,27.98
						c-0.01,0-0.03,0-0.04,0.01c-24.37,5.13-45.49,6.04-45.49,6.04C821.6,911.53,871.93,901.15,871.93,901.15z"/>
				</g>
			</g>
		</g>
		<g>
			<g>
				<path class="st34" d="M912.08,862.72c0,0-0.05-1.23-0.52-2.72c-1.49-4.75-12.92-10.67-29.55-16.69c0,0-69.83-29.45-135.87,23.71
					c0,0,24.4,15.45,70.41,14.82C842.91,881.48,912.11,874.21,912.08,862.72z"/>
			</g>
		</g>
		<g>
			<g>
				<path class="st35" d="M807.53,878.83c0,0-18.98,0.78-36.67-4.61l-0.01-0.01c-9.4-2.85-16.81-6.04-17.53-9.07
					c0,0,9.81-7.29,22.58-13.31c0.01-0.01,0.01-0.02,0.02-0.02c0.01-0.01,0.02-0.02,0.02-0.02c12.43-5.85,9.21-4.48,17.1-6.74
					C793.05,845.05,788.9,865.91,807.53,878.83z"/>
			</g>
		</g>
		<g>
			<g>
				<path class="st34" d="M745.17,831.44c0,0,80.32-44.59,151.23-4.86C896.41,826.58,826.36,770.78,745.17,831.44z"/>
			</g>
		</g>
		<g>
			<g>
				<path class="st13" d="M770.84,874.21c-9.4-2.85-16.81-6.04-17.53-9.07c0,0,9.81-7.29,22.58-13.31
					C774.9,852.43,757.11,863.54,770.84,874.21z"/>
			</g>
		</g>
		<g>
			<g>
				<path class="st35" d="M910.7,861.34c-0.17,0.72-0.63,1.38-1.36,1.99c-0.03,0.04-0.07,0.07-0.12,0.1
					c-2.39,1.95-7.46,3.53-14.5,5.67l-0.02,0.01l-2.89,0.82c-17.69,5.4-33.79,5.96-33.79,5.96c18.64-12.93,12.96-34.63,12.96-34.63
					c7.9,2.27,4.68,0.89,17.1,6.74c0,0,0.02,0.01,0.03,0.02c0.01,0,0.01,0.01,0.02,0.01C900.89,854.05,910.7,861.34,910.7,861.34z"
					/>
			</g>
		</g>
		<g>
			<g>
				<path class="st13" d="M910.7,861.34c-0.16,0.65-0.62,1.32-1.36,1.99c-0.03,0.04-0.07,0.07-0.12,0.1
					c-2.39,1.95-7.46,3.53-14.5,5.67l-0.02,0.01c10.79-10.25-5.62-20.48-6.57-21.08C900.89,854.05,910.7,861.34,910.7,861.34z"/>
			</g>
		</g>
		<g id="lng_00000059272796538159148650000006706914914691798917_">
			<g>
				<path class="st15" d="M929.83,734.23c-4.6,15.41-25.82,26.73-25.82,26.73c-16.6-12.13-94.46-30.38-94.46-30.38
					c-58.74-12.49-97.73,7.53-119,24.74c-8.59,6.94-14.28,13.42-17.23,17.12c-1.09,1.37-1.8,2.35-2.14,2.84
					c-0.01,0.01-0.01,0.01-0.02,0.02c0,0.01,0,0.01-0.01,0.02c-0.14,0.2-0.21,0.31-0.21,0.31c0-0.05,0-0.09,0.01-0.14v-0.01
					c1.29-30.62,12.59-52.13,24.86-66.62c15.66-18.51,32.89-25.58,32.89-25.58c95.29-45.05,186.35,22.33,186.35,22.33
					C929.76,715.58,932.43,725.55,929.83,734.23z"/>
			</g>
		</g>
		<g>
			<g>
				<path class="st15" d="M1370.26,810.16c-3.19-5.83-6.66-11.17-10.39-16.07c-1.24-1.64-2.51-3.23-3.81-4.76c0-0.01,0-0.01,0-0.01
					c-70.62-83.7-218.79-22.98-218.79-22.98c-20.66-21.66-17.23-36.79-2.36-47.37c0.15-0.1,0.29-0.2,0.43-0.29
					c0.18-0.14,0.37-0.26,0.55-0.38l0,0.01c35.27-23.85,129.5-23.86,129.5-23.86c43.9,2.42,69.42,23.09,84.26,46.31
					C1370.26,773,1370.26,810.16,1370.26,810.16z"/>
			</g>
		</g>
		<g>
			<g>
				<path class="st34" d="M1141.36,882.46c0,0,20.85-42.65,105.22-26.56c0,0,30.43,11.23,38.53,35.32c0,0,2.89,5.09-26.03,8.07
					c-7.65,0.79-18.49,2.52-28.58,2.43c-11.68-0.1-23.47-1.14-35.23-2.43C1170.72,896.6,1154.75,893.75,1141.36,882.46z"/>
			</g>
		</g>
		<g>
			<g>
				<path class="st35" d="M1190.4,896.6c0,0-13.72-1.37-34.55-8.1c-4.85-1.56-9.31-3.54-12.93-6.01c0,0,6.55-8.74,19.22-16.69
					c0.02-0.01,0.03-0.02,0.03-0.02c10.13-6.43,6.16-4.09,12.96-6.04C1175.12,859.74,1171.53,886.22,1190.4,896.6z"/>
			</g>
		</g>
		<g>
			<g>
				<path class="st35" d="M1278.17,893.85L1278.17,893.85c-1.88,0.79-4.62,1.3-6.09,1.7c-6.71,1.93-10.6,2.21-17.04,3.11
					c-5.77,0.8-11.85,0.9-11.85,0.9c12-8.14,15.64-34.44,12.04-36.73c11.74,6.32,14.5,10,20.74,16.18h0.01
					c0.01,0.01,0.01,0.01,0.01,0.03c0.02,0.02,0.05,0.04,0.09,0.08c1.07,1.05,2.08,2.17,2.96,3.22
					C1280.08,884.11,1280.24,890.75,1278.17,893.85z"/>
			</g>
		</g>
		<g>
			<g>
				<path class="st36" d="M1280.34,895.44c-0.25,0.09-0.48,0.16-0.66,0.21C1279.92,895.57,1280.14,895.51,1280.34,895.44z"/>
			</g>
		</g>
		<g>
			<g>
				<path class="st34" d="M1145.54,847.57c0,0,71.92-39.63,152.28,2.65C1297.83,850.22,1218.6,795.9,1145.54,847.57z"/>
			</g>
		</g>
		<g>
			<g>
				<path class="st13" d="M1155.85,888.5c-4.85-1.56-9.31-3.54-12.93-6.01c0,0,6.55-8.74,19.22-16.69
					C1161.37,866.41,1145.42,879.38,1155.85,888.5z"/>
			</g>
		</g>
		<g>
			<g>
				<path class="st12" d="M1304.65,887.34c-0.02-0.02-0.03-0.03-0.03-0.03h0.01C1304.64,887.32,1304.65,887.32,1304.65,887.34z"/>
			</g>
		</g>
		<g>
			<g>
				<path class="st12" d="M1284,891.03c-0.55,0.87-3.94,2.04-5.83,2.82c2.07-3.1,1.91-9.74,0.87-11.51
					C1281.4,885.11,1284,891.03,1284,891.03z"/>
			</g>
		</g>
		<g class="st25">
			<g>
				<path class="st33" d="M679.86,948.55c0,0-0.85,139.24,101.96,149.51c0,0,156.98,14.65,131.6-105.94
					c0,0-33.96-74.62-128.74-26.12c0,0-42.36,12.94-87.3-21.2C697.38,944.81,686.66,935.08,679.86,948.55z"/>
			</g>
		</g>
		<g>
			<g>
				<path class="st15" d="M931.97,1148.45c0,0,10.28,18.51,35.31,14.01c-2.51,0.45-12.64-0.41-21.68-4.57
					c-9.77-4.49-20.58-29.68-16.25-60.86c0.04-0.35,0.52-2.23,0.58-2.59c0.29-1.95,3.15-14.92,5.16-17.66l-2.63,1.99
					C931.9,1079.33,910.53,1102.84,931.97,1148.45z"/>
			</g>
		</g>
		<g>
			<g>
				<path class="st37" d="M1181.32,911.09c-4-2.28-8.01-4.56-12.01-6.84c0.19-0.44,0.38-0.87,0.57-1.31
					c2.23,0.51,4.46,1.05,6.7,1.53c15.38,3.35,30.75,6.73,46.15,9.99c2.54,0.54,5.2,0.54,7.81,0.79c2.78,0.18,5.56,0.35,8.34,0.53
					c3.46,0.3,6.92,0.59,10.38,0.89c2.59,0.13,5.18,0.25,7.78,0.38c0.06,0.44,0.11,0.88,0.17,1.32c-2.65,0.53-5.27,1.23-7.94,1.57
					c-20.9,2.7-41.16-0.35-61.03-6.86C1185.96,912.33,1183.63,911.75,1181.32,911.09z"/>
			</g>
		</g>
		<g>
			<g>
				<path class="st37" d="M988.62,917.84c-0.13-1.42-0.27-2.83-0.4-4.25c0.5-0.91,1.01-1.81,1.51-2.72
					c1.27,5.32,2.73,10.6,3.76,15.97c1.45,7.54,2.58,15.14,3.84,22.72c0.77,8.84,2.15,17.7,0.18,26.54c-0.94,4.2-2.2,8.33-3.32,12.5
					c-0.56-2.3-1.51-4.59-1.63-6.92c-0.53-10.06-0.62-20.14-1.24-30.19C990.64,940.26,989.54,929.06,988.62,917.84z"/>
			</g>
		</g>
		<g>
			<g>
				<path class="st38" d="M853.96,911.9c-13.94,4.04-27.96,7.75-42.4,9.55c-6.28,0.79-12.6,1.28-18.9,1.9
					c-0.93-0.22-1.87-0.44-2.8-0.65c28.24-8.7,57.23-13.94,85.47-22.19c0.16,0.39,0.32,0.78,0.48,1.17c-3.33,1.7-6.62,3.49-10,5.06
					C861.92,908.57,857.92,910.19,853.96,911.9z"/>
			</g>
		</g>
		<g>
			<path class="st3" d="M520.28,795c-0.09,0.23,0.01,0.42,0.14,0.63c-0.04-0.21-0.09-0.41-0.14-0.62V795z"/>
			<path class="st3" d="M1525.3,500.05c1.34-36.1,5.09-89.54-15.32-137.3c-22.16-60.47-52.42-69.16-52.42-69.16
				c23.86,6.08,55.32,45.95,55.32,45.95c-85.27-175.94-194.7-164.78-223.64-172c-2.68-1.03-5.4-2.02-8.14-3
				c-96.95-81.92-278.68,10.39-278.68,10.39c-80.65-88.43-212.56-68.33-212.56-68.33c-190.44,0-211.63,87.91-252.77,141.74
				c-72.45,61.5-128.99,154.39-105.33,282.22c1.62,8.73,4.78,17.08,7.19,25.83c5.18,18.64,10.41,37.69,15.52,56.46
				c13.05,48.31,54.56,133.67,65.8,182.14c5.43-7.73,2.97-16.65,2.19-27.48c1.51-1.15,16.34,38.96,18.46,48.61
				c7.02-4.07-0.24-24.11-2.02-31.24c0,0,13.08,8.59,18.99,75.67c0.51,4.96,2.14,15.93,3.31,22.22c0.06-0.14,0.12-0.26,0.15-0.34
				c3.59,20.77,13.2,59.74,28.32,55.73c1.72,6.31,9.36,34.41,10.92,40.14c6.13-32.82,3.34-65.42,2.79-99.65
				c-1.26-33.44-3.51-68.09-5.97-100.55c-0.2-7.55,1.28-16.92,3.87-27.28C625.02,776.8,759.06,507.1,759.06,507.1
				c8.4-31.9,47.91-63,70.05-81.23c-48.4,52.06-64.5,128.94-53.22,168.67c0,0,8.58-120.19,114.08-182.05
				c3.71-0.98,7.34-1.89,10.89-2.74c0,0,0,0,0,0c0,0-116.39,64.59-102.83,290.37c0,0,17.23-233.8,138.55-285.22
				c32.77,15.39,154.16-10.18,154.16-10.18c166.54,30.53,227.7,100.36,249.58,154.32c4.41,21.62,4.95,44.66,10.85,71.39
				c4.34,20.2,36.13,65.79,36.14,65.79c25.47,74.53,9.07,113.32,8.3,171.74c-0.7,17.87-4.84,48.91-2.69,66.82
				c4.9-5.03,6.41-9.8,12.26-16.86c0,0,69.04-138.49,98.45-252.11c0,0,12.06-58.43,14.94-102.62c4.03-12.2,1.6-58.46,2.28-69.08
				C1522.39,496,1523.93,498,1525.3,500.05z"/>
		</g>
	</g>
</g>
<g id="Layer_5" class="st39">
</g>
</svg>
